0
SECTION
2
HEADER
9
$ANGDIR
70
1
9
$AUNITS
70
0
9
$PROJECTNAME
1
Camera BNC 1 to 4
9
$TDCREATE
40
2459289.11728581
9
$INSUNITS
70
4
0
ENDSEC
0
SECTION
2
ENTITIES
0
POLYLINE
66
1
8
outline
10
0.0
20
0.0
30
0.0
70
1
0
VERTEX
8
0
10
0
20
6.3500000000000005
30
0
0
VERTEX
8
0
10
0.0048312500000000005
20
6.2393125000000005
30
0
0
VERTEX
8
0
10
0.019293750000000002
20
6.129465625
30
0
0
VERTEX
8
0
10
0.043275
20
6.0213
30
0
0
VERTEX
8
0
10
0.07659062500000001
20
5.915634375000001
30
0
0
VERTEX
8
0
10
0.118990625
20
5.813275
30
0
0
VERTEX
8
0
10
0.170146875
20
5.715
30
0
0
VERTEX
8
0
10
0.229678125
20
5.621559375
30
0
0
VERTEX
8
0
10
0.29712500000000003
20
5.533659375
30
0
0
VERTEX
8
0
10
0.371975
20
5.451975
30
0
0
VERTEX
8
0
10
0.45365937500000003
20
5.377125
30
0
0
VERTEX
8
0
10
0.5415593750000001
20
5.3096781250000005
30
0
0
VERTEX
8
0
10
0.635
20
5.250146875
30
0
0
VERTEX
8
0
10
0.733275
20
5.198990625
30
0
0
VERTEX
8
0
10
0.835634375
20
5.156590625000001
30
0
0
VERTEX
8
0
10
0.9413
20
5.1232750000000005
30
0
0
VERTEX
8
0
10
1.049465625
20
5.09929375
30
0
0
VERTEX
8
0
10
1.1593125
20
5.084831250000001
30
0
0
VERTEX
8
0
10
1.27
20
5.08
30
0
0
VERTEX
8
0
10
41.800000000000004
20
5.08
30
0
0
VERTEX
8
0
10
41.90894375
20
5.08475625
30
0
0
VERTEX
8
0
10
42.017059375
20
5.098990625
30
0
0
VERTEX
8
0
10
42.123525
20
5.12259375
30
0
0
VERTEX
8
0
10
42.227525
20
5.155384375000001
30
0
0
VERTEX
8
0
10
42.328271875
20
5.197115625
30
0
0
VERTEX
8
0
10
42.425000000000004
20
5.24746875
30
0
0
VERTEX
8
0
10
42.516971875
20
5.306059375
30
0
0
VERTEX
8
0
10
42.603484375
20
5.37244375
30
0
0
VERTEX
8
0
10
42.683884375000005
20
5.446115625
30
0
0
VERTEX
8
0
10
42.75755625
20
5.526515625
30
0
0
VERTEX
8
0
10
42.823940625
20
5.6130281250000005
30
0
0
VERTEX
8
0
10
42.88253125
20
5.705
30
0
0
VERTEX
8
0
10
42.932884375
20
5.801728125
30
0
0
VERTEX
8
0
10
42.974615625000006
20
5.902475
30
0
0
VERTEX
8
0
10
43.00740625
20
6.006475
30
0
0
VERTEX
8
0
10
43.031009375000004
20
6.112940625
30
0
0
VERTEX
8
0
10
43.045243750000004
20
6.22105625
30
0
0
VERTEX
8
0
10
43.050000000000004
20
6.33
30
0
0
VERTEX
8
0
10
43.050000000000004
20
25.5
30
0
0
VERTEX
8
0
10
43.046421875
20
25.581925000000002
30
0
0
VERTEX
8
0
10
43.03571875
20
25.663228125
30
0
0
VERTEX
8
0
10
43.01796875
20
25.743290625
30
0
0
VERTEX
8
0
10
42.9933125
20
25.8215
30
0
0
VERTEX
8
0
10
42.961928125
20
25.8972625
30
0
0
VERTEX
8
0
10
42.924062500000005
20
25.970000000000002
30
0
0
VERTEX
8
0
10
42.880003125
20
26.0391625
30
0
0
VERTEX
8
0
10
42.83008125
20
26.104221875
30
0
0
VERTEX
8
0
10
42.77468125
20
26.16468125
30
0
0
VERTEX
8
0
10
42.714221875
20
26.22008125
30
0
0
VERTEX
8
0
10
42.6491625
20
26.270003125000002
30
0
0
VERTEX
8
0
10
42.580000000000005
20
26.314062500000002
30
0
0
VERTEX
8
0
10
42.5072625
20
26.351928125
30
0
0
VERTEX
8
0
10
42.4315
20
26.383312500000002
30
0
0
VERTEX
8
0
10
42.353290625
20
26.407968750000002
30
0
0
VERTEX
8
0
10
42.273228125
20
26.42571875
30
0
0
VERTEX
8
0
10
42.191925000000005
20
26.436421875
30
0
0
VERTEX
8
0
10
42.11
20
26.44
30
0
0
VERTEX
8
0
10
0.9400000000000001
20
26.34
30
0
0
VERTEX
8
0
10
0.858075
20
26.336421875000003
30
0
0
VERTEX
8
0
10
0.776771875
20
26.32571875
30
0
0
VERTEX
8
0
10
0.6967093750000001
20
26.30796875
30
0
0
VERTEX
8
0
10
0.6185
20
26.2833125
30
0
0
VERTEX
8
0
10
0.5427375
20
26.251928125000003
30
0
0
VERTEX
8
0
10
0.47000000000000003
20
26.2140625
30
0
0
VERTEX
8
0
10
0.4008375
20
26.170003125
30
0
0
VERTEX
8
0
10
0.33577812500000004
20
26.120081250000002
30
0
0
VERTEX
8
0
10
0.27531875
20
26.06468125
30
0
0
VERTEX
8
0
10
0.21991875000000002
20
26.004221875000002
30
0
0
VERTEX
8
0
10
0.16999687500000002
20
25.939162500000002
30
0
0
VERTEX
8
0
10
0.1259375
20
25.87
30
0
0
VERTEX
8
0
10
0.08807187500000001
20
25.797262500000002
30
0
0
VERTEX
8
0
10
0.0566875
20
25.721500000000002
30
0
0
VERTEX
8
0
10
0.032031250000000004
20
25.643290625000002
30
0
0
VERTEX
8
0
10
0.01428125
20
25.563228125000002
30
0
0
VERTEX
8
0
10
0.003578125
20
25.481925
30
0
0
VERTEX
8
0
10
0
20
25.400000000000002
30
0
0
VERTEX
8
0
10
0
20
6.3500000000000005
30
0
0
SEQEND
0
POLYLINE
66
1
8
holes
10
0.0
20
0.0
30
0.0
70
1
0
VERTEX
8
0
10
2.8000000000000003
20
24.7563375
30
0
0
VERTEX
8
0
10
2.7923906250000003
20
24.66935
30
0
0
VERTEX
8
0
10
2.777225
20
24.583353125000002
30
0
0
VERTEX
8
0
10
2.7546250000000003
20
24.49900625
30
0
0
VERTEX
8
0
10
2.724759375
20
24.416953125000003
30
0
0
VERTEX
8
0
10
2.6878562500000003
20
24.337812500000002
30
0
0
VERTEX
8
0
10
2.6441937500000003
20
24.2621875
30
0
0
VERTEX
8
0
10
2.594109375
20
24.190659375000003
30
0
0
VERTEX
8
0
10
2.53798125
20
24.123765625
30
0
0
VERTEX
8
0
10
2.476234375
20
24.06201875
30
0
0
VERTEX
8
0
10
2.409340625
20
24.005890625000003
30
0
0
VERTEX
8
0
10
2.3378125
20
23.955806250000002
30
0
0
VERTEX
8
0
10
2.2621875
20
23.912143750000002
30
0
0
VERTEX
8
0
10
2.183046875
20
23.875240625
30
0
0
VERTEX
8
0
10
2.10099375
20
23.845375
30
0
0
VERTEX
8
0
10
2.016646875
20
23.822775
30
0
0
VERTEX
8
0
10
1.9306500000000002
20
23.807609375000002
30
0
0
VERTEX
8
0
10
1.8436625
20
23.8
30
0
0
VERTEX
8
0
10
1.7563375
20
23.8
30
0
0
VERTEX
8
0
10
1.6693500000000001
20
23.807609375000002
30
0
0
VERTEX
8
0
10
1.5833531250000001
20
23.822775
30
0
0
VERTEX
8
0
10
1.49900625
20
23.845375
30
0
0
VERTEX
8
0
10
1.416953125
20
23.875240625
30
0
0
VERTEX
8
0
10
1.3378125
20
23.912143750000002
30
0
0
VERTEX
8
0
10
1.2621875
20
23.955806250000002
30
0
0
VERTEX
8
0
10
1.190659375
20
24.005890625000003
30
0
0
VERTEX
8
0
10
1.123765625
20
24.06201875
30
0
0
VERTEX
8
0
10
1.06201875
20
24.123765625
30
0
0
VERTEX
8
0
10
1.0058906250000001
20
24.190659375000003
30
0
0
VERTEX
8
0
10
0.9558062500000001
20
24.2621875
30
0
0
VERTEX
8
0
10
0.91214375
20
24.337812500000002
30
0
0
VERTEX
8
0
10
0.875240625
20
24.416953125000003
30
0
0
VERTEX
8
0
10
0.845375
20
24.49900625
30
0
0
VERTEX
8
0
10
0.822775
20
24.583353125000002
30
0
0
VERTEX
8
0
10
0.8076093750000001
20
24.66935
30
0
0
VERTEX
8
0
10
0.8
20
24.7563375
30
0
0
VERTEX
8
0
10
0.8
20
24.8436625
30
0
0
VERTEX
8
0
10
0.8076093750000001
20
24.93065
30
0
0
VERTEX
8
0
10
0.822775
20
25.016646875000003
30
0
0
VERTEX
8
0
10
0.845375
20
25.10099375
30
0
0
VERTEX
8
0
10
0.875240625
20
25.183046875000002
30
0
0
VERTEX
8
0
10
0.91214375
20
25.2621875
30
0
0
VERTEX
8
0
10
0.9558062500000001
20
25.337812500000002
30
0
0
VERTEX
8
0
10
1.0058906250000001
20
25.409340625000002
30
0
0
VERTEX
8
0
10
1.06201875
20
25.476234375
30
0
0
VERTEX
8
0
10
1.123765625
20
25.53798125
30
0
0
VERTEX
8
0
10
1.190659375
20
25.594109375000002
30
0
0
VERTEX
8
0
10
1.2621875
20
25.64419375
30
0
0
VERTEX
8
0
10
1.3378125
20
25.687856250000003
30
0
0
VERTEX
8
0
10
1.416953125
20
25.724759375
30
0
0
VERTEX
8
0
10
1.49900625
20
25.754625
30
0
0
VERTEX
8
0
10
1.5833531250000001
20
25.777225
30
0
0
VERTEX
8
0
10
1.6693500000000001
20
25.792390625
30
0
0
VERTEX
8
0
10
1.7563375
20
25.8
30
0
0
VERTEX
8
0
10
1.8436625
20
25.8
30
0
0
VERTEX
8
0
10
1.9306500000000002
20
25.792390625
30
0
0
VERTEX
8
0
10
2.016646875
20
25.777225
30
0
0
VERTEX
8
0
10
2.10099375
20
25.754625
30
0
0
VERTEX
8
0
10
2.183046875
20
25.724759375
30
0
0
VERTEX
8
0
10
2.2621875
20
25.687856250000003
30
0
0
VERTEX
8
0
10
2.3378125
20
25.64419375
30
0
0
VERTEX
8
0
10
2.409340625
20
25.594109375000002
30
0
0
VERTEX
8
0
10
2.476234375
20
25.53798125
30
0
0
VERTEX
8
0
10
2.53798125
20
25.476234375
30
0
0
VERTEX
8
0
10
2.594109375
20
25.409340625000002
30
0
0
VERTEX
8
0
10
2.6441937500000003
20
25.337812500000002
30
0
0
VERTEX
8
0
10
2.6878562500000003
20
25.2621875
30
0
0
VERTEX
8
0
10
2.724759375
20
25.183046875000002
30
0
0
VERTEX
8
0
10
2.7546250000000003
20
25.10099375
30
0
0
VERTEX
8
0
10
2.777225
20
25.016646875000003
30
0
0
VERTEX
8
0
10
2.7923906250000003
20
24.93065
30
0
0
VERTEX
8
0
10
2.8000000000000003
20
24.8436625
30
0
0
VERTEX
8
0
10
2.8000000000000003
20
24.7563375
30
0
0
SEQEND
0
POLYLINE
66
1
8
holes
10
0.0
20
0.0
30
0.0
70
1
0
VERTEX
8
0
10
42.300000000000004
20
24.9563375
30
0
0
VERTEX
8
0
10
42.292390625
20
24.86935
30
0
0
VERTEX
8
0
10
42.277225
20
24.783353125
30
0
0
VERTEX
8
0
10
42.254625000000004
20
24.69900625
30
0
0
VERTEX
8
0
10
42.224759375000005
20
24.616953125000002
30
0
0
VERTEX
8
0
10
42.18785625
20
24.5378125
30
0
0
VERTEX
8
0
10
42.14419375
20
24.462187500000002
30
0
0
VERTEX
8
0
10
42.094109375
20
24.390659375000002
30
0
0
VERTEX
8
0
10
42.03798125
20
24.323765625
30
0
0
VERTEX
8
0
10
41.976234375000004
20
24.262018750000003
30
0
0
VERTEX
8
0
10
41.909340625
20
24.205890625000002
30
0
0
VERTEX
8
0
10
41.837812500000005
20
24.15580625
30
0
0
VERTEX
8
0
10
41.7621875
20
24.11214375
30
0
0
VERTEX
8
0
10
41.683046875
20
24.075240625000003
30
0
0
VERTEX
8
0
10
41.60099375
20
24.045375
30
0
0
VERTEX
8
0
10
41.516646875
20
24.022775000000003
30
0
0
VERTEX
8
0
10
41.43065
20
24.007609375
30
0
0
VERTEX
8
0
10
41.3436625
20
24
30
0
0
VERTEX
8
0
10
41.2563375
20
24
30
0
0
VERTEX
8
0
10
41.16935
20
24.007609375
30
0
0
VERTEX
8
0
10
41.083353125
20
24.022775000000003
30
0
0
VERTEX
8
0
10
40.99900625
20
24.045375
30
0
0
VERTEX
8
0
10
40.916953125
20
24.075240625000003
30
0
0
VERTEX
8
0
10
40.837812500000005
20
24.11214375
30
0
0
VERTEX
8
0
10
40.7621875
20
24.15580625
30
0
0
VERTEX
8
0
10
40.690659375
20
24.205890625000002
30
0
0
VERTEX
8
0
10
40.623765625000004
20
24.262018750000003
30
0
0
VERTEX
8
0
10
40.56201875
20
24.323765625
30
0
0
VERTEX
8
0
10
40.505890625
20
24.390659375000002
30
0
0
VERTEX
8
0
10
40.45580625
20
24.462187500000002
30
0
0
VERTEX
8
0
10
40.41214375
20
24.5378125
30
0
0
VERTEX
8
0
10
40.375240625
20
24.616953125000002
30
0
0
VERTEX
8
0
10
40.345375000000004
20
24.69900625
30
0
0
VERTEX
8
0
10
40.322775
20
24.783353125
30
0
0
VERTEX
8
0
10
40.307609375
20
24.86935
30
0
0
VERTEX
8
0
10
40.300000000000004
20
24.9563375
30
0
0
VERTEX
8
0
10
40.300000000000004
20
25.0436625
30
0
0
VERTEX
8
0
10
40.307609375
20
25.130650000000003
30
0
0
VERTEX
8
0
10
40.322775
20
25.216646875000002
30
0
0
VERTEX
8
0
10
40.345375000000004
20
25.30099375
30
0
0
VERTEX
8
0
10
40.375240625
20
25.383046875
30
0
0
VERTEX
8
0
10
40.41214375
20
25.462187500000002
30
0
0
VERTEX
8
0
10
40.45580625
20
25.5378125
30
0
0
VERTEX
8
0
10
40.505890625
20
25.609340625
30
0
0
VERTEX
8
0
10
40.56201875
20
25.676234375
30
0
0
VERTEX
8
0
10
40.623765625000004
20
25.73798125
30
0
0
VERTEX
8
0
10
40.690659375
20
25.794109375
30
0
0
VERTEX
8
0
10
40.7621875
20
25.844193750000002
30
0
0
VERTEX
8
0
10
40.837812500000005
20
25.887856250000002
30
0
0
VERTEX
8
0
10
40.916953125
20
25.924759375
30
0
0
VERTEX
8
0
10
40.99900625
20
25.954625
30
0
0
VERTEX
8
0
10
41.083353125
20
25.977225
30
0
0
VERTEX
8
0
10
41.16935
20
25.992390625000002
30
0
0
VERTEX
8
0
10
41.2563375
20
26
30
0
0
VERTEX
8
0
10
41.3436625
20
26
30
0
0
VERTEX
8
0
10
41.43065
20
25.992390625000002
30
0
0
VERTEX
8
0
10
41.516646875
20
25.977225
30
0
0
VERTEX
8
0
10
41.60099375
20
25.954625
30
0
0
VERTEX
8
0
10
41.683046875
20
25.924759375
30
0
0
VERTEX
8
0
10
41.7621875
20
25.887856250000002
30
0
0
VERTEX
8
0
10
41.837812500000005
20
25.844193750000002
30
0
0
VERTEX
8
0
10
41.909340625
20
25.794109375
30
0
0
VERTEX
8
0
10
41.976234375000004
20
25.73798125
30
0
0
VERTEX
8
0
10
42.03798125
20
25.676234375
30
0
0
VERTEX
8
0
10
42.094109375
20
25.609340625
30
0
0
VERTEX
8
0
10
42.14419375
20
25.5378125
30
0
0
VERTEX
8
0
10
42.18785625
20
25.462187500000002
30
0
0
VERTEX
8
0
10
42.224759375000005
20
25.383046875
30
0
0
VERTEX
8
0
10
42.254625000000004
20
25.30099375
30
0
0
VERTEX
8
0
10
42.277225
20
25.216646875000002
30
0
0
VERTEX
8
0
10
42.292390625
20
25.130650000000003
30
0
0
VERTEX
8
0
10
42.300000000000004
20
25.0436625
30
0
0
VERTEX
8
0
10
42.300000000000004
20
24.9563375
30
0
0
SEQEND
0
POLYLINE
66
1
8
holes
10
0.0
20
0.0
30
0.0
70
1
0
VERTEX
8
0
10
42.300000000000004
20
6.7563375
30
0
0
VERTEX
8
0
10
42.292390625
20
6.6693500000000006
30
0
0
VERTEX
8
0
10
42.277225
20
6.583353125
30
0
0
VERTEX
8
0
10
42.254625000000004
20
6.49900625
30
0
0
VERTEX
8
0
10
42.224759375000005
20
6.416953125
30
0
0
VERTEX
8
0
10
42.18785625
20
6.3378125
30
0
0
VERTEX
8
0
10
42.14419375
20
6.2621875000000005
30
0
0
VERTEX
8
0
10
42.094109375
20
6.190659375
30
0
0
VERTEX
8
0
10
42.03798125
20
6.123765625
30
0
0
VERTEX
8
0
10
41.976234375000004
20
6.06201875
30
0
0
VERTEX
8
0
10
41.909340625
20
6.005890625
30
0
0
VERTEX
8
0
10
41.837812500000005
20
5.95580625
30
0
0
VERTEX
8
0
10
41.7621875
20
5.91214375
30
0
0
VERTEX
8
0
10
41.683046875
20
5.875240625
30
0
0
VERTEX
8
0
10
41.60099375
20
5.845375000000001
30
0
0
VERTEX
8
0
10
41.516646875
20
5.822775
30
0
0
VERTEX
8
0
10
41.43065
20
5.807609375
30
0
0
VERTEX
8
0
10
41.3436625
20
5.800000000000001
30
0
0
VERTEX
8
0
10
41.2563375
20
5.800000000000001
30
0
0
VERTEX
8
0
10
41.16935
20
5.807609375
30
0
0
VERTEX
8
0
10
41.083353125
20
5.822775
30
0
0
VERTEX
8
0
10
40.99900625
20
5.845375000000001
30
0
0
VERTEX
8
0
10
40.916953125
20
5.875240625
30
0
0
VERTEX
8
0
10
40.837812500000005
20
5.91214375
30
0
0
VERTEX
8
0
10
40.7621875
20
5.95580625
30
0
0
VERTEX
8
0
10
40.690659375
20
6.005890625
30
0
0
VERTEX
8
0
10
40.623765625000004
20
6.06201875
30
0
0
VERTEX
8
0
10
40.56201875
20
6.123765625
30
0
0
VERTEX
8
0
10
40.505890625
20
6.190659375
30
0
0
VERTEX
8
0
10
40.45580625
20
6.2621875000000005
30
0
0
VERTEX
8
0
10
40.41214375
20
6.3378125
30
0
0
VERTEX
8
0
10
40.375240625
20
6.416953125
30
0
0
VERTEX
8
0
10
40.345375000000004
20
6.49900625
30
0
0
VERTEX
8
0
10
40.322775
20
6.583353125
30
0
0
VERTEX
8
0
10
40.307609375
20
6.6693500000000006
30
0
0
VERTEX
8
0
10
40.300000000000004
20
6.7563375
30
0
0
VERTEX
8
0
10
40.300000000000004
20
6.843662500000001
30
0
0
VERTEX
8
0
10
40.307609375
20
6.93065
30
0
0
VERTEX
8
0
10
40.322775
20
7.016646875
30
0
0
VERTEX
8
0
10
40.345375000000004
20
7.100993750000001
30
0
0
VERTEX
8
0
10
40.375240625
20
7.1830468750000005
30
0
0
VERTEX
8
0
10
40.41214375
20
7.2621875000000005
30
0
0
VERTEX
8
0
10
40.45580625
20
7.3378125
30
0
0
VERTEX
8
0
10
40.505890625
20
7.4093406250000005
30
0
0
VERTEX
8
0
10
40.56201875
20
7.476234375000001
30
0
0
VERTEX
8
0
10
40.623765625000004
20
7.5379812500000005
30
0
0
VERTEX
8
0
10
40.690659375
20
7.594109375
30
0
0
VERTEX
8
0
10
40.7621875
20
7.64419375
30
0
0
VERTEX
8
0
10
40.837812500000005
20
7.68785625
30
0
0
VERTEX
8
0
10
40.916953125
20
7.7247593750000005
30
0
0
VERTEX
8
0
10
40.99900625
20
7.754625000000001
30
0
0
VERTEX
8
0
10
41.083353125
20
7.7772250000000005
30
0
0
VERTEX
8
0
10
41.16935
20
7.792390625
30
0
0
VERTEX
8
0
10
41.2563375
20
7.800000000000001
30
0
0
VERTEX
8
0
10
41.3436625
20
7.800000000000001
30
0
0
VERTEX
8
0
10
41.43065
20
7.792390625
30
0
0
VERTEX
8
0
10
41.516646875
20
7.7772250000000005
30
0
0
VERTEX
8
0
10
41.60099375
20
7.754625000000001
30
0
0
VERTEX
8
0
10
41.683046875
20
7.7247593750000005
30
0
0
VERTEX
8
0
10
41.7621875
20
7.68785625
30
0
0
VERTEX
8
0
10
41.837812500000005
20
7.64419375
30
0
0
VERTEX
8
0
10
41.909340625
20
7.594109375
30
0
0
VERTEX
8
0
10
41.976234375000004
20
7.5379812500000005
30
0
0
VERTEX
8
0
10
42.03798125
20
7.476234375000001
30
0
0
VERTEX
8
0
10
42.094109375
20
7.4093406250000005
30
0
0
VERTEX
8
0
10
42.14419375
20
7.3378125
30
0
0
VERTEX
8
0
10
42.18785625
20
7.2621875000000005
30
0
0
VERTEX
8
0
10
42.224759375000005
20
7.1830468750000005
30
0
0
VERTEX
8
0
10
42.254625000000004
20
7.100993750000001
30
0
0
VERTEX
8
0
10
42.277225
20
7.016646875
30
0
0
VERTEX
8
0
10
42.292390625
20
6.93065
30
0
0
VERTEX
8
0
10
42.300000000000004
20
6.843662500000001
30
0
0
VERTEX
8
0
10
42.300000000000004
20
6.7563375
30
0
0
SEQEND
0
POLYLINE
66
1
8
holes
10
0.0
20
0.0
30
0.0
70
1
0
VERTEX
8
0
10
2.7
20
6.7563375
30
0
0
VERTEX
8
0
10
2.6923906250000003
20
6.6693500000000006
30
0
0
VERTEX
8
0
10
2.677225
20
6.583353125
30
0
0
VERTEX
8
0
10
2.6546250000000002
20
6.49900625
30
0
0
VERTEX
8
0
10
2.624759375
20
6.416953125
30
0
0
VERTEX
8
0
10
2.58785625
20
6.3378125
30
0
0
VERTEX
8
0
10
2.5441937500000003
20
6.2621875000000005
30
0
0
VERTEX
8
0
10
2.4941093750000003
20
6.190659375
30
0
0
VERTEX
8
0
10
2.43798125
20
6.123765625
30
0
0
VERTEX
8
0
10
2.376234375
20
6.06201875
30
0
0
VERTEX
8
0
10
2.309340625
20
6.005890625
30
0
0
VERTEX
8
0
10
2.2378125
20
5.95580625
30
0
0
VERTEX
8
0
10
2.1621875
20
5.91214375
30
0
0
VERTEX
8
0
10
2.083046875
20
5.875240625
30
0
0
VERTEX
8
0
10
2.00099375
20
5.845375000000001
30
0
0
VERTEX
8
0
10
1.916646875
20
5.822775
30
0
0
VERTEX
8
0
10
1.83065
20
5.807609375
30
0
0
VERTEX
8
0
10
1.7436625000000001
20
5.800000000000001
30
0
0
VERTEX
8
0
10
1.6563375
20
5.800000000000001
30
0
0
VERTEX
8
0
10
1.56935
20
5.807609375
30
0
0
VERTEX
8
0
10
1.483353125
20
5.822775
30
0
0
VERTEX
8
0
10
1.39900625
20
5.845375000000001
30
0
0
VERTEX
8
0
10
1.3169531250000002
20
5.875240625
30
0
0
VERTEX
8
0
10
1.2378125
20
5.91214375
30
0
0
VERTEX
8
0
10
1.1621875000000002
20
5.95580625
30
0
0
VERTEX
8
0
10
1.090659375
20
6.005890625
30
0
0
VERTEX
8
0
10
1.023765625
20
6.06201875
30
0
0
VERTEX
8
0
10
0.96201875
20
6.123765625
30
0
0
VERTEX
8
0
10
0.9058906250000001
20
6.190659375
30
0
0
VERTEX
8
0
10
0.85580625
20
6.2621875000000005
30
0
0
VERTEX
8
0
10
0.81214375
20
6.3378125
30
0
0
VERTEX
8
0
10
0.775240625
20
6.416953125
30
0
0
VERTEX
8
0
10
0.745375
20
6.49900625
30
0
0
VERTEX
8
0
10
0.7227750000000001
20
6.583353125
30
0
0
VERTEX
8
0
10
0.707609375
20
6.6693500000000006
30
0
0
VERTEX
8
0
10
0.7000000000000001
20
6.7563375
30
0
0
VERTEX
8
0
10
0.7000000000000001
20
6.843662500000001
30
0
0
VERTEX
8
0
10
0.707609375
20
6.93065
30
0
0
VERTEX
8
0
10
0.7227750000000001
20
7.016646875
30
0
0
VERTEX
8
0
10
0.745375
20
7.100993750000001
30
0
0
VERTEX
8
0
10
0.775240625
20
7.1830468750000005
30
0
0
VERTEX
8
0
10
0.81214375
20
7.2621875000000005
30
0
0
VERTEX
8
0
10
0.85580625
20
7.3378125
30
0
0
VERTEX
8
0
10
0.9058906250000001
20
7.4093406250000005
30
0
0
VERTEX
8
0
10
0.96201875
20
7.476234375000001
30
0
0
VERTEX
8
0
10
1.023765625
20
7.5379812500000005
30
0
0
VERTEX
8
0
10
1.090659375
20
7.594109375
30
0
0
VERTEX
8
0
10
1.1621875000000002
20
7.64419375
30
0
0
VERTEX
8
0
10
1.2378125
20
7.68785625
30
0
0
VERTEX
8
0
10
1.3169531250000002
20
7.7247593750000005
30
0
0
VERTEX
8
0
10
1.39900625
20
7.754625000000001
30
0
0
VERTEX
8
0
10
1.483353125
20
7.7772250000000005
30
0
0
VERTEX
8
0
10
1.56935
20
7.792390625
30
0
0
VERTEX
8
0
10
1.6563375
20
7.800000000000001
30
0
0
VERTEX
8
0
10
1.7436625000000001
20
7.800000000000001
30
0
0
VERTEX
8
0
10
1.83065
20
7.792390625
30
0
0
VERTEX
8
0
10
1.916646875
20
7.7772250000000005
30
0
0
VERTEX
8
0
10
2.00099375
20
7.754625000000001
30
0
0
VERTEX
8
0
10
2.083046875
20
7.7247593750000005
30
0
0
VERTEX
8
0
10
2.1621875
20
7.68785625
30
0
0
VERTEX
8
0
10
2.2378125
20
7.64419375
30
0
0
VERTEX
8
0
10
2.309340625
20
7.594109375
30
0
0
VERTEX
8
0
10
2.376234375
20
7.5379812500000005
30
0
0
VERTEX
8
0
10
2.43798125
20
7.476234375000001
30
0
0
VERTEX
8
0
10
2.4941093750000003
20
7.4093406250000005
30
0
0
VERTEX
8
0
10
2.5441937500000003
20
7.3378125
30
0
0
VERTEX
8
0
10
2.58785625
20
7.2621875000000005
30
0
0
VERTEX
8
0
10
2.624759375
20
7.1830468750000005
30
0
0
VERTEX
8
0
10
2.6546250000000002
20
7.100993750000001
30
0
0
VERTEX
8
0
10
2.677225
20
7.016646875
30
0
0
VERTEX
8
0
10
2.6923906250000003
20
6.93065
30
0
0
VERTEX
8
0
10
2.7
20
6.843662500000001
30
0
0
VERTEX
8
0
10
2.7
20
6.7563375
30
0
0
SEQEND
0
POLYLINE
66
1
8
holes
10
0.0
20
0.0
30
0.0
70
1
0
VERTEX
8
0
10
11.143662500000001
20
11.520000000000001
30
0
0
VERTEX
8
0
10
11.23065
20
11.512390625
30
0
0
VERTEX
8
0
10
11.316646875
20
11.497225
30
0
0
VERTEX
8
0
10
11.400993750000001
20
11.474625000000001
30
0
0
VERTEX
8
0
10
11.483046875000001
20
11.444759375
30
0
0
VERTEX
8
0
10
11.5621875
20
11.40785625
30
0
0
VERTEX
8
0
10
11.6378125
20
11.36419375
30
0
0
VERTEX
8
0
10
11.709340625000001
20
11.314109375000001
30
0
0
VERTEX
8
0
10
11.776234375000001
20
11.25798125
30
0
0
VERTEX
8
0
10
11.83798125
20
11.196234375000001
30
0
0
VERTEX
8
0
10
11.894109375000001
20
11.129340625000001
30
0
0
VERTEX
8
0
10
11.94419375
20
11.0578125
30
0
0
VERTEX
8
0
10
11.98785625
20
10.9821875
30
0
0
VERTEX
8
0
10
12.024759375
20
10.903046875000001
30
0
0
VERTEX
8
0
10
12.054625
20
10.820993750000001
30
0
0
VERTEX
8
0
10
12.077225
20
10.736646875
30
0
0
VERTEX
8
0
10
12.092390625
20
10.65065
30
0
0
VERTEX
8
0
10
12.100000000000001
20
10.563662500000001
30
0
0
VERTEX
8
0
10
12.100000000000001
20
10.4763375
30
0
0
VERTEX
8
0
10
12.092390625
20
10.38935
30
0
0
VERTEX
8
0
10
12.077225
20
10.303353125000001
30
0
0
VERTEX
8
0
10
12.054625
20
10.21900625
30
0
0
VERTEX
8
0
10
12.024759375
20
10.136953125
30
0
0
VERTEX
8
0
10
11.98785625
20
10.0578125
30
0
0
VERTEX
8
0
10
11.94419375
20
9.9821875
30
0
0
VERTEX
8
0
10
11.894109375000001
20
9.910659375
30
0
0
VERTEX
8
0
10
11.83798125
20
9.843765625
30
0
0
VERTEX
8
0
10
11.776234375000001
20
9.78201875
30
0
0
VERTEX
8
0
10
11.709340625000001
20
9.725890625
30
0
0
VERTEX
8
0
10
11.6378125
20
9.67580625
30
0
0
VERTEX
8
0
10
11.5621875
20
9.632143750000001
30
0
0
VERTEX
8
0
10
11.483046875000001
20
9.595240625
30
0
0
VERTEX
8
0
10
11.400993750000001
20
9.565375000000001
30
0
0
VERTEX
8
0
10
11.316646875
20
9.542775
30
0
0
VERTEX
8
0
10
11.23065
20
9.527609375
30
0
0
VERTEX
8
0
10
11.143662500000001
20
9.52
30
0
0
VERTEX
8
0
10
11.0563375
20
9.52
30
0
0
VERTEX
8
0
10
10.96935
20
9.527609375
30
0
0
VERTEX
8
0
10
10.883353125000001
20
9.542775
30
0
0
VERTEX
8
0
10
10.79900625
20
9.565375000000001
30
0
0
VERTEX
8
0
10
10.716953125
20
9.595240625
30
0
0
VERTEX
8
0
10
10.6378125
20
9.632143750000001
30
0
0
VERTEX
8
0
10
10.5621875
20
9.67580625
30
0
0
VERTEX
8
0
10
10.490659375
20
9.725890625
30
0
0
VERTEX
8
0
10
10.423765625
20
9.78201875
30
0
0
VERTEX
8
0
10
10.36201875
20
9.843765625
30
0
0
VERTEX
8
0
10
10.305890625
20
9.910659375
30
0
0
VERTEX
8
0
10
10.255806250000001
20
9.9821875
30
0
0
VERTEX
8
0
10
10.212143750000001
20
10.0578125
30
0
0
VERTEX
8
0
10
10.175240625
20
10.136953125
30
0
0
VERTEX
8
0
10
10.145375000000001
20
10.21900625
30
0
0
VERTEX
8
0
10
10.122775
20
10.303353125000001
30
0
0
VERTEX
8
0
10
10.107609375000001
20
10.38935
30
0
0
VERTEX
8
0
10
10.1
20
10.4763375
30
0
0
VERTEX
8
0
10
10.1
20
10.563662500000001
30
0
0
VERTEX
8
0
10
10.107609375000001
20
10.65065
30
0
0
VERTEX
8
0
10
10.122775
20
10.736646875
30
0
0
VERTEX
8
0
10
10.145375000000001
20
10.820993750000001
30
0
0
VERTEX
8
0
10
10.175240625
20
10.903046875000001
30
0
0
VERTEX
8
0
10
10.212143750000001
20
10.9821875
30
0
0
VERTEX
8
0
10
10.255806250000001
20
11.0578125
30
0
0
VERTEX
8
0
10
10.305890625
20
11.129340625000001
30
0
0
VERTEX
8
0
10
10.36201875
20
11.196234375000001
30
0
0
VERTEX
8
0
10
10.423765625
20
11.25798125
30
0
0
VERTEX
8
0
10
10.490659375
20
11.314109375000001
30
0
0
VERTEX
8
0
10
10.5621875
20
11.36419375
30
0
0
VERTEX
8
0
10
10.6378125
20
11.40785625
30
0
0
VERTEX
8
0
10
10.716953125
20
11.444759375
30
0
0
VERTEX
8
0
10
10.79900625
20
11.474625000000001
30
0
0
VERTEX
8
0
10
10.883353125000001
20
11.497225
30
0
0
VERTEX
8
0
10
10.96935
20
11.512390625
30
0
0
VERTEX
8
0
10
11.0563375
20
11.520000000000001
30
0
0
VERTEX
8
0
10
11.143662500000001
20
11.520000000000001
30
0
0
SEQEND
0
POLYLINE
66
1
8
holes
10
0.0
20
0.0
30
0.0
70
1
0
VERTEX
8
0
10
11.143662500000001
20
21.68
30
0
0
VERTEX
8
0
10
11.23065
20
21.672390625000002
30
0
0
VERTEX
8
0
10
11.316646875
20
21.657225
30
0
0
VERTEX
8
0
10
11.400993750000001
20
21.634625
30
0
0
VERTEX
8
0
10
11.483046875000001
20
21.604759375
30
0
0
VERTEX
8
0
10
11.5621875
20
21.567856250000002
30
0
0
VERTEX
8
0
10
11.6378125
20
21.524193750000002
30
0
0
VERTEX
8
0
10
11.709340625000001
20
21.474109375
30
0
0
VERTEX
8
0
10
11.776234375000001
20
21.41798125
30
0
0
VERTEX
8
0
10
11.83798125
20
21.356234375
30
0
0
VERTEX
8
0
10
11.894109375000001
20
21.289340625
30
0
0
VERTEX
8
0
10
11.94419375
20
21.2178125
30
0
0
VERTEX
8
0
10
11.98785625
20
21.142187500000002
30
0
0
VERTEX
8
0
10
12.024759375
20
21.063046875
30
0
0
VERTEX
8
0
10
12.054625
20
20.98099375
30
0
0
VERTEX
8
0
10
12.077225
20
20.896646875000002
30
0
0
VERTEX
8
0
10
12.092390625
20
20.810650000000003
30
0
0
VERTEX
8
0
10
12.100000000000001
20
20.7236625
30
0
0
VERTEX
8
0
10
12.100000000000001
20
20.6363375
30
0
0
VERTEX
8
0
10
12.092390625
20
20.54935
30
0
0
VERTEX
8
0
10
12.077225
20
20.463353125
30
0
0
VERTEX
8
0
10
12.054625
20
20.37900625
30
0
0
VERTEX
8
0
10
12.024759375
20
20.296953125
30
0
0
VERTEX
8
0
10
11.98785625
20
20.2178125
30
0
0
VERTEX
8
0
10
11.94419375
20
20.142187500000002
30
0
0
VERTEX
8
0
10
11.894109375000001
20
20.070659375
30
0
0
VERTEX
8
0
10
11.83798125
20
20.003765625
30
0
0
VERTEX
8
0
10
11.776234375000001
20
19.942018750000003
30
0
0
VERTEX
8
0
10
11.709340625000001
20
19.885890625000002
30
0
0
VERTEX
8
0
10
11.6378125
20
19.83580625
30
0
0
VERTEX
8
0
10
11.5621875
20
19.79214375
30
0
0
VERTEX
8
0
10
11.483046875000001
20
19.755240625000003
30
0
0
VERTEX
8
0
10
11.400993750000001
20
19.725375
30
0
0
VERTEX
8
0
10
11.316646875
20
19.702775000000003
30
0
0
VERTEX
8
0
10
11.23065
20
19.687609375
30
0
0
VERTEX
8
0
10
11.143662500000001
20
19.68
30
0
0
VERTEX
8
0
10
11.0563375
20
19.68
30
0
0
VERTEX
8
0
10
10.96935
20
19.687609375
30
0
0
VERTEX
8
0
10
10.883353125000001
20
19.702775000000003
30
0
0
VERTEX
8
0
10
10.79900625
20
19.725375
30
0
0
VERTEX
8
0
10
10.716953125
20
19.755240625000003
30
0
0
VERTEX
8
0
10
10.6378125
20
19.79214375
30
0
0
VERTEX
8
0
10
10.5621875
20
19.83580625
30
0
0
VERTEX
8
0
10
10.490659375
20
19.885890625000002
30
0
0
VERTEX
8
0
10
10.423765625
20
19.942018750000003
30
0
0
VERTEX
8
0
10
10.36201875
20
20.003765625
30
0
0
VERTEX
8
0
10
10.305890625
20
20.070659375
30
0
0
VERTEX
8
0
10
10.255806250000001
20
20.142187500000002
30
0
0
VERTEX
8
0
10
10.212143750000001
20
20.2178125
30
0
0
VERTEX
8
0
10
10.175240625
20
20.296953125
30
0
0
VERTEX
8
0
10
10.145375000000001
20
20.37900625
30
0
0
VERTEX
8
0
10
10.122775
20
20.463353125
30
0
0
VERTEX
8
0
10
10.107609375000001
20
20.54935
30
0
0
VERTEX
8
0
10
10.1
20
20.6363375
30
0
0
VERTEX
8
0
10
10.1
20
20.7236625
30
0
0
VERTEX
8
0
10
10.107609375000001
20
20.810650000000003
30
0
0
VERTEX
8
0
10
10.122775
20
20.896646875000002
30
0
0
VERTEX
8
0
10
10.145375000000001
20
20.98099375
30
0
0
VERTEX
8
0
10
10.175240625
20
21.063046875
30
0
0
VERTEX
8
0
10
10.212143750000001
20
21.142187500000002
30
0
0
VERTEX
8
0
10
10.255806250000001
20
21.2178125
30
0
0
VERTEX
8
0
10
10.305890625
20
21.289340625
30
0
0
VERTEX
8
0
10
10.36201875
20
21.356234375
30
0
0
VERTEX
8
0
10
10.423765625
20
21.41798125
30
0
0
VERTEX
8
0
10
10.490659375
20
21.474109375
30
0
0
VERTEX
8
0
10
10.5621875
20
21.524193750000002
30
0
0
VERTEX
8
0
10
10.6378125
20
21.567856250000002
30
0
0
VERTEX
8
0
10
10.716953125
20
21.604759375
30
0
0
VERTEX
8
0
10
10.79900625
20
21.634625
30
0
0
VERTEX
8
0
10
10.883353125000001
20
21.657225
30
0
0
VERTEX
8
0
10
10.96935
20
21.672390625000002
30
0
0
VERTEX
8
0
10
11.0563375
20
21.68
30
0
0
VERTEX
8
0
10
11.143662500000001
20
21.68
30
0
0
SEQEND
0
POLYLINE
66
1
8
1_copper
10
0.0
20
0.0
30
0.0
70
1
0
VERTEX
8
0
10
35.37194375
20
19.603337500000002
30
0
42
0.3578057741447831
0
VERTEX
8
0
10
36.022
20
20.320565625
30
0
0
VERTEX
8
0
10
36.022
20
21.919434375
30
0
0
VERTEX
8
0
10
36.0146625
20
21.99394375
30
0
42
0.9063472543261978
0
VERTEX
8
0
10
34.498000000000005
20
21.919434375
30
0
0
VERTEX
8
0
10
34.498000000000005
20
20.320565625
30
0
0
VERTEX
8
0
10
34.5053375
20
20.246056250000002
30
0
42
0.38574240611503685
0
VERTEX
8
0
10
35.297434375
20
19.596
30
0
0
SEQEND
0
POLYLINE
66
1
8
1_copper
10
0.0
20
0.0
30
0.0
70
1
0
VERTEX
8
0
10
30.29194375
20
19.603337500000002
30
0
42
0.3578057741447831
0
VERTEX
8
0
10
30.942
20
20.320565625
30
0
0
VERTEX
8
0
10
30.942
20
21.919434375
30
0
0
VERTEX
8
0
10
30.9346625
20
21.99394375
30
0
42
0.9063472543261978
0
VERTEX
8
0
10
29.418000000000003
20
21.919434375
30
0
0
VERTEX
8
0
10
29.418000000000003
20
20.320565625
30
0
0
VERTEX
8
0
10
29.4253375
20
20.246056250000002
30
0
42
0.38574240611503685
0
VERTEX
8
0
10
30.217434375
20
19.596
30
0
0
SEQEND
0
POLYLINE
66
1
8
1_copper
10
0.0
20
0.0
30
0.0
70
1
0
VERTEX
8
0
10
25.21194375
20
19.603337500000002
30
0
42
0.3578057741447831
0
VERTEX
8
0
10
25.862000000000002
20
20.320565625
30
0
0
VERTEX
8
0
10
25.862000000000002
20
21.919434375
30
0
0
VERTEX
8
0
10
25.8546625
20
21.99394375
30
0
42
0.9063472543261978
0
VERTEX
8
0
10
24.338
20
21.919434375
30
0
0
VERTEX
8
0
10
24.338
20
20.320565625
30
0
0
VERTEX
8
0
10
24.3453375
20
20.246056250000002
30
0
42
0.38574240611503685
0
VERTEX
8
0
10
25.137434375
20
19.596
30
0
0
SEQEND
0
POLYLINE
66
1
8
1_copper
10
0.0
20
0.0
30
0.0
70
1
0
VERTEX
8
0
10
25.21194375
20
8.1733375
30
0
42
0.3578057741447831
0
VERTEX
8
0
10
25.862000000000002
20
8.890565625
30
0
0
VERTEX
8
0
10
25.862000000000002
20
10.489434375
30
0
0
VERTEX
8
0
10
25.8546625
20
10.56394375
30
0
42
0.9063472543261978
0
VERTEX
8
0
10
24.338
20
10.489434375
30
0
0
VERTEX
8
0
10
24.338
20
8.890565625
30
0
0
VERTEX
8
0
10
24.3453375
20
8.81605625
30
0
42
0.38574240611503685
0
VERTEX
8
0
10
25.137434375
20
8.166
30
0
0
SEQEND
0
POLYLINE
66
1
8
1_copper
10
0.0
20
0.0
30
0.0
70
1
0
VERTEX
8
0
10
30.29194375
20
8.1733375
30
0
42
0.3578057741447831
0
VERTEX
8
0
10
30.942
20
8.890565625
30
0
0
VERTEX
8
0
10
30.942
20
10.489434375
30
0
0
VERTEX
8
0
10
30.9346625
20
10.56394375
30
0
42
0.9063472543261978
0
VERTEX
8
0
10
29.418000000000003
20
10.489434375
30
0
0
VERTEX
8
0
10
29.418000000000003
20
8.890565625
30
0
0
VERTEX
8
0
10
29.4253375
20
8.81605625
30
0
42
0.38574240611503685
0
VERTEX
8
0
10
30.217434375
20
8.166
30
0
0
SEQEND
0
POLYLINE
66
1
8
1_copper
10
0.0
20
0.0
30
0.0
70
1
0
VERTEX
8
0
10
35.37194375
20
8.1733375
30
0
42
0.3578057741447831
0
VERTEX
8
0
10
36.022
20
8.890565625
30
0
0
VERTEX
8
0
10
36.022
20
10.489434375
30
0
0
VERTEX
8
0
10
36.0146625
20
10.56394375
30
0
42
0.9063472543261978
0
VERTEX
8
0
10
34.498000000000005
20
10.489434375
30
0
0
VERTEX
8
0
10
34.498000000000005
20
8.890565625
30
0
0
VERTEX
8
0
10
34.5053375
20
8.81605625
30
0
42
0.38574240611503685
0
VERTEX
8
0
10
35.297434375
20
8.166
30
0
0
SEQEND
0
POLYLINE
66
1
8
16_copper
10
0.0
20
0.0
30
0.0
70
1
0
VERTEX
8
0
10
39.110462500000004
20
6.096443750000001
30
0
0
VERTEX
8
0
10
39.11555
20
6.09625
30
0
42
0.4350949357677774
0
VERTEX
8
0
10
39.30640625
20
6.3235875
30
0
0
VERTEX
8
0
10
39.305184375
20
6.3362875
30
0
0
VERTEX
8
0
10
39.303818750000005
20
6.341190625
30
0
0
VERTEX
8
0
10
39.303081250000005
20
6.3462250000000004
30
0
0
VERTEX
8
0
10
39.2984
20
6.360681250000001
30
0
0
VERTEX
8
0
10
39.29564375
20
6.3705875
30
0
0
VERTEX
8
0
10
39.29424375
20
6.37350625
30
0
0
VERTEX
8
0
10
39.293125
20
6.376965625
30
0
0
VERTEX
8
0
10
39.284
20
6.398993750000001
30
0
0
VERTEX
8
0
10
39.284
20
7.201006250000001
30
0
0
VERTEX
8
0
10
39.590915625
20
7.94196875
30
0
0
VERTEX
8
0
10
40.158028125
20
8.509081250000001
30
0
0
VERTEX
8
0
10
40.717759375
20
8.740928125
30
0
0
VERTEX
8
0
10
40.730484375
20
8.747559375
30
0
0
VERTEX
8
0
10
40.743500000000004
20
8.75379375
30
0
42
0.22288050252497776
0
VERTEX
8
0
10
40.84063125
20
8.89645
30
0
0
VERTEX
8
0
10
40.840921875
20
8.900075000000001
30
0
0
VERTEX
8
0
10
40.841603125
20
8.903228125
30
0
0
VERTEX
8
0
10
40.841990625
20
8.913503125
30
0
0
VERTEX
8
0
10
40.8432
20
8.928659375
30
0
0
VERTEX
8
0
10
40.8432
20
22.871337500000003
30
0
0
VERTEX
8
0
10
40.8419375
20
22.885678125000002
30
0
0
VERTEX
8
0
10
40.8411625
20
22.900040625000003
30
0
42
0.22287770576441618
0
VERTEX
8
0
10
40.7465375
20
23.04436875
30
0
0
VERTEX
8
0
10
40.743309375
20
23.04601875
30
0
0
VERTEX
8
0
10
40.740646875
20
23.0478625
30
0
0
VERTEX
8
0
10
40.7312625
20
23.052171875000003
30
0
0
VERTEX
8
0
10
40.717759375
20
23.05906875
30
0
0
VERTEX
8
0
10
40.158028125
20
23.290915625
30
0
0
VERTEX
8
0
10
39.590915625
20
23.858028125
30
0
0
VERTEX
8
0
10
39.284
20
24.598990625000003
30
0
0
VERTEX
8
0
10
39.284
20
25.213440625
30
0
0
VERTEX
8
0
10
39.28390625
20
25.21451875
30
0
0
VERTEX
8
0
10
39.2839875
20
25.215584375000002
30
0
42
0.36601437585804086
0
VERTEX
8
0
10
39.112525000000005
20
25.414150000000003
30
0
0
VERTEX
8
0
10
39.08030625
20
25.416640625000003
30
0
0
VERTEX
8
0
10
4.018703125
20
25.331478125
30
0
0
VERTEX
8
0
10
4.018125
20
25.331425000000003
30
0
0
VERTEX
8
0
10
4.017546875
20
25.331471875000002
30
0
42
0.366018778160151
0
VERTEX
8
0
10
3.818565625
20
25.160487500000002
30
0
0
VERTEX
8
0
10
3.815996875
20
25.128278125
30
0
0
VERTEX
8
0
10
3.815996875
20
24.398990625
30
0
0
VERTEX
8
0
10
3.5090812500000004
20
23.658028125
30
0
0
VERTEX
8
0
10
2.94196875
20
23.090915625
30
0
0
VERTEX
8
0
10
2.2010062500000003
20
22.784000000000002
30
0
0
VERTEX
8
0
10
1.3989906250000002
20
22.784000000000002
30
0
0
VERTEX
8
0
10
1.2969593750000001
20
22.826262500000002
30
0
0
VERTEX
8
0
10
1.292115625
20
22.8277875
30
0
0
VERTEX
8
0
10
1.2874875000000001
20
22.829912500000002
30
0
42
0.46905950517839784
0
VERTEX
8
0
10
1.0185656250000001
20
22.670740625
30
0
0
VERTEX
8
0
10
1.01735625
20
22.655559375000003
30
0
0
VERTEX
8
0
10
1.0161125
20
22.645378125
30
0
0
VERTEX
8
0
10
1.0162875
20
22.6421625
30
0
0
VERTEX
8
0
10
1.0159968750000001
20
22.63853125
30
0
0
VERTEX
8
0
10
1.0159968750000001
20
9.002884375
30
0
0
VERTEX
8
0
10
1.01644375
20
8.99781875
30
0
0
VERTEX
8
0
10
1.01625
20
8.992725
30
0
42
0.35189859237422805
0
VERTEX
8
0
10
1.1853562500000001
20
8.802521875
30
0
0
VERTEX
8
0
10
1.1904343750000002
20
8.802115625
30
0
0
VERTEX
8
0
10
1.195415625
20
8.801081250000001
30
0
42
0.07956944700890041
0
VERTEX
8
0
10
1.266228125
20
8.805203125
30
0
0
VERTEX
8
0
10
1.2806656250000001
20
8.809878125000001
30
0
0
VERTEX
8
0
10
1.2905875
20
8.812637500000001
30
0
0
VERTEX
8
0
10
1.293503125
20
8.814034375
30
0
0
VERTEX
8
0
10
1.29696875
20
8.815156250000001
30
0
0
VERTEX
8
0
10
1.298996875
20
8.815996875
30
0
0
VERTEX
8
0
10
2.10100625
20
8.815996875
30
0
0
VERTEX
8
0
10
2.84196875
20
8.509081250000001
30
0
0
VERTEX
8
0
10
3.4090812500000003
20
7.94196875
30
0
0
VERTEX
8
0
10
3.715996875
20
7.201006250000001
30
0
0
VERTEX
8
0
10
3.715996875
20
6.398993750000001
30
0
0
VERTEX
8
0
10
3.706871875
20
6.376965625
30
0
42
0.4843986973758116
0
VERTEX
8
0
10
3.862390625
20
6.098565625
30
0
0
VERTEX
8
0
10
3.87754375
20
6.097356250000001
30
0
0
VERTEX
8
0
10
3.8877437500000003
20
6.0961125
30
0
0
VERTEX
8
0
10
3.890965625
20
6.0962875
30
0
0
VERTEX
8
0
10
3.8946
20
6.095996875
30
0
0
VERTEX
8
0
10
39.105396875000004
20
6.095996875
30
0
0
SEQEND
0
POLYLINE
66
1
8
16_copper
10
0.0
20
0.0
30
0.0
70
1
0
VERTEX
8
0
10
30.942
20
21.374000000000002
30
0
0
VERTEX
8
0
10
30.942
20
21.919434375
30
0
0
VERTEX
8
0
10
30.9346625
20
21.99394375
30
0
42
0.2767375280948381
0
VERTEX
8
0
10
30.43701875
20
22.600321875000002
30
0
0
VERTEX
8
0
10
30.434
20
22.6012375
30
0
0
VERTEX
8
0
10
30.434
20
22.86775
30
0
0
VERTEX
8
0
10
30.570021875000002
20
22.82355625
30
0
0
VERTEX
8
0
10
30.712484375000003
20
22.750965625000003
30
0
0
VERTEX
8
0
10
30.841878125
20
22.65695625
30
0
0
VERTEX
8
0
10
30.954956250000002
20
22.543878125000003
30
0
0
VERTEX
8
0
10
31.048965625
20
22.414484375
30
0
0
VERTEX
8
0
10
31.12155625
20
22.272021875
30
0
0
VERTEX
8
0
10
31.17098125
20
22.1199
30
0
0
VERTEX
8
0
10
31.195996875000002
20
21.96196875
30
0
0
VERTEX
8
0
10
31.195996875000002
20
21.374000000000002
30
0
0
SEQEND
0
POLYLINE
66
1
8
16_copper
10
0.0
20
0.0
30
0.0
70
1
0
VERTEX
8
0
10
34.243996875
20
21.374000000000002
30
0
0
VERTEX
8
0
10
34.244
20
21.96196875
30
0
0
VERTEX
8
0
10
34.269015625
20
22.1199
30
0
0
VERTEX
8
0
10
34.318440625
20
22.272021875
30
0
0
VERTEX
8
0
10
34.391031250000005
20
22.414484375
30
0
0
VERTEX
8
0
10
34.485040625
20
22.543878125000003
30
0
0
VERTEX
8
0
10
34.598118750000005
20
22.65695625
30
0
0
VERTEX
8
0
10
34.7275125
20
22.750965625000003
30
0
0
VERTEX
8
0
10
34.869975000000004
20
22.82355625
30
0
0
VERTEX
8
0
10
35.00599375
20
22.86775
30
0
0
VERTEX
8
0
10
35.00599375
20
22.601234375
30
0
0
VERTEX
8
0
10
35.002981250000005
20
22.600321875000002
30
0
42
0.30334709750080463
0
VERTEX
8
0
10
34.498000000000005
20
21.919434375
30
0
0
VERTEX
8
0
10
34.498000000000005
20
21.374000000000002
30
0
0
SEQEND
0
POLYLINE
66
1
8
16_copper
10
0.0
20
0.0
30
0.0
70
1
0
VERTEX
8
0
10
29.163996875000002
20
21.374000000000002
30
0
0
VERTEX
8
0
10
29.164
20
21.96196875
30
0
0
VERTEX
8
0
10
29.189015625
20
22.1199
30
0
0
VERTEX
8
0
10
29.238440625000003
20
22.272021875
30
0
0
VERTEX
8
0
10
29.311031250000003
20
22.414484375
30
0
0
VERTEX
8
0
10
29.405040625
20
22.543878125000003
30
0
0
VERTEX
8
0
10
29.518118750000003
20
22.65695625
30
0
0
VERTEX
8
0
10
29.6475125
20
22.750965625000003
30
0
0
VERTEX
8
0
10
29.789975000000002
20
22.82355625
30
0
0
VERTEX
8
0
10
29.92599375
20
22.86775
30
0
0
VERTEX
8
0
10
29.92599375
20
22.601234375
30
0
0
VERTEX
8
0
10
29.922981250000003
20
22.600321875000002
30
0
42
0.30334709750080463
0
VERTEX
8
0
10
29.418000000000003
20
21.919434375
30
0
0
VERTEX
8
0
10
29.418000000000003
20
21.374000000000002
30
0
0
SEQEND
0
POLYLINE
66
1
8
16_copper
10
0.0
20
0.0
30
0.0
70
1
0
VERTEX
8
0
10
36.022
20
21.374000000000002
30
0
0
VERTEX
8
0
10
36.022
20
21.919434375
30
0
0
VERTEX
8
0
10
36.0146625
20
21.99394375
30
0
42
0.2767375280948381
0
VERTEX
8
0
10
35.51701875
20
22.600321875000002
30
0
0
VERTEX
8
0
10
35.514
20
22.6012375
30
0
0
VERTEX
8
0
10
35.514
20
22.86775
30
0
0
VERTEX
8
0
10
35.650021875
20
22.82355625
30
0
0
VERTEX
8
0
10
35.792484375
20
22.750965625000003
30
0
0
VERTEX
8
0
10
35.921878125
20
22.65695625
30
0
0
VERTEX
8
0
10
36.03495625
20
22.543878125000003
30
0
0
VERTEX
8
0
10
36.128965625
20
22.414484375
30
0
0
VERTEX
8
0
10
36.20155625
20
22.272021875
30
0
0
VERTEX
8
0
10
36.25098125
20
22.1199
30
0
0
VERTEX
8
0
10
36.275996875000004
20
21.96196875
30
0
0
VERTEX
8
0
10
36.275996875000004
20
21.374000000000002
30
0
0
SEQEND
0
POLYLINE
66
1
8
16_copper
10
0.0
20
0.0
30
0.0
70
1
0
VERTEX
8
0
10
24.083996875
20
21.374000000000002
30
0
0
VERTEX
8
0
10
24.084
20
21.96196875
30
0
0
VERTEX
8
0
10
24.109015625
20
22.1199
30
0
0
VERTEX
8
0
10
24.158440625
20
22.272021875
30
0
0
VERTEX
8
0
10
24.23103125
20
22.414484375
30
0
0
VERTEX
8
0
10
24.325040625
20
22.543878125000003
30
0
0
VERTEX
8
0
10
24.43811875
20
22.65695625
30
0
0
VERTEX
8
0
10
24.5675125
20
22.750965625000003
30
0
0
VERTEX
8
0
10
24.709975
20
22.82355625
30
0
0
VERTEX
8
0
10
24.84599375
20
22.86775
30
0
0
VERTEX
8
0
10
24.84599375
20
22.601234375
30
0
0
VERTEX
8
0
10
24.84298125
20
22.600321875000002
30
0
42
0.30334709750080463
0
VERTEX
8
0
10
24.338
20
21.919434375
30
0
0
VERTEX
8
0
10
24.338
20
21.374000000000002
30
0
0
SEQEND
0
POLYLINE
66
1
8
16_copper
10
0.0
20
0.0
30
0.0
70
1
0
VERTEX
8
0
10
25.862000000000002
20
21.374000000000002
30
0
0
VERTEX
8
0
10
25.862000000000002
20
21.919434375
30
0
0
VERTEX
8
0
10
25.8546625
20
21.99394375
30
0
42
0.2767375280948381
0
VERTEX
8
0
10
25.35701875
20
22.600321875000002
30
0
0
VERTEX
8
0
10
25.354000000000003
20
22.6012375
30
0
0
VERTEX
8
0
10
25.354000000000003
20
22.86775
30
0
0
VERTEX
8
0
10
25.490021875
20
22.82355625
30
0
0
VERTEX
8
0
10
25.632484375
20
22.750965625000003
30
0
0
VERTEX
8
0
10
25.761878125000003
20
22.65695625
30
0
0
VERTEX
8
0
10
25.87495625
20
22.543878125000003
30
0
0
VERTEX
8
0
10
25.968965625000003
20
22.414484375
30
0
0
VERTEX
8
0
10
26.041556250000003
20
22.272021875
30
0
0
VERTEX
8
0
10
26.090981250000002
20
22.1199
30
0
0
VERTEX
8
0
10
26.115996875
20
21.96196875
30
0
0
VERTEX
8
0
10
26.115996875
20
21.374000000000002
30
0
0
SEQEND
0
POLYLINE
66
1
8
16_copper
10
0.0
20
0.0
30
0.0
70
1
0
VERTEX
8
0
10
32.538109375000005
20
19.4436
30
0
0
VERTEX
8
0
10
32.202034375000004
20
19.58280625
30
0
0
VERTEX
8
0
10
31.944806250000003
20
19.840034375000002
30
0
0
VERTEX
8
0
10
31.805600000000002
20
20.176109375
30
0
0
VERTEX
8
0
10
31.805600000000002
20
22.0638875
30
0
0
VERTEX
8
0
10
31.944806250000003
20
22.3999625
30
0
0
VERTEX
8
0
10
32.202034375000004
20
22.657190625000002
30
0
0
VERTEX
8
0
10
32.538109375000005
20
22.796396875000003
30
0
0
VERTEX
8
0
10
32.9018875
20
22.796396875000003
30
0
0
VERTEX
8
0
10
33.2379625
20
22.657190625000002
30
0
0
VERTEX
8
0
10
33.495190625
20
22.3999625
30
0
0
VERTEX
8
0
10
33.634396875
20
22.0638875
30
0
0
VERTEX
8
0
10
33.634396875
20
20.176109375
30
0
0
VERTEX
8
0
10
33.495190625
20
19.840034375000002
30
0
0
VERTEX
8
0
10
33.2379625
20
19.58280625
30
0
0
VERTEX
8
0
10
32.9018875
20
19.4436
30
0
0
SEQEND
0
POLYLINE
66
1
8
16_copper
10
0.0
20
0.0
30
0.0
70
1
0
VERTEX
8
0
10
27.458109375000003
20
19.4436
30
0
0
VERTEX
8
0
10
27.122034375000002
20
19.58280625
30
0
0
VERTEX
8
0
10
26.86480625
20
19.840034375000002
30
0
0
VERTEX
8
0
10
26.7256
20
20.176109375
30
0
0
VERTEX
8
0
10
26.7256
20
22.0638875
30
0
0
VERTEX
8
0
10
26.86480625
20
22.3999625
30
0
0
VERTEX
8
0
10
27.122034375000002
20
22.657190625000002
30
0
0
VERTEX
8
0
10
27.458109375000003
20
22.796396875000003
30
0
0
VERTEX
8
0
10
27.821887500000003
20
22.796396875000003
30
0
0
VERTEX
8
0
10
28.1579625
20
22.657190625000002
30
0
0
VERTEX
8
0
10
28.415190625
20
22.3999625
30
0
0
VERTEX
8
0
10
28.554396875000002
20
22.0638875
30
0
0
VERTEX
8
0
10
28.554396875000002
20
20.176109375
30
0
0
VERTEX
8
0
10
28.415190625
20
19.840034375000002
30
0
0
VERTEX
8
0
10
28.1579625
20
19.58280625
30
0
0
VERTEX
8
0
10
27.821887500000003
20
19.4436
30
0
0
SEQEND
0
POLYLINE
66
1
8
16_copper
10
0.0
20
0.0
30
0.0
70
1
0
VERTEX
8
0
10
22.378109375
20
19.4436
30
0
0
VERTEX
8
0
10
22.042034375
20
19.58280625
30
0
0
VERTEX
8
0
10
21.784806250000003
20
19.840034375000002
30
0
0
VERTEX
8
0
10
21.6456
20
20.176109375
30
0
0
VERTEX
8
0
10
21.6456
20
22.0638875
30
0
0
VERTEX
8
0
10
21.784806250000003
20
22.3999625
30
0
0
VERTEX
8
0
10
22.042034375
20
22.657190625000002
30
0
0
VERTEX
8
0
10
22.378109375
20
22.796396875000003
30
0
0
VERTEX
8
0
10
22.7418875
20
22.796396875000003
30
0
0
VERTEX
8
0
10
23.0779625
20
22.657190625000002
30
0
0
VERTEX
8
0
10
23.335190625000003
20
22.3999625
30
0
0
VERTEX
8
0
10
23.474396875
20
22.0638875
30
0
0
VERTEX
8
0
10
23.474396875
20
20.176109375
30
0
0
VERTEX
8
0
10
23.335190625000003
20
19.840034375000002
30
0
0
VERTEX
8
0
10
23.0779625
20
19.58280625
30
0
0
VERTEX
8
0
10
22.7418875
20
19.4436
30
0
0
SEQEND
0
POLYLINE
66
1
8
16_copper
10
0.0
20
0.0
30
0.0
70
1
0
VERTEX
8
0
10
10.698990625
20
18.664
30
0
0
VERTEX
8
0
10
9.958028125
20
18.970915625
30
0
0
VERTEX
8
0
10
9.390915625
20
19.538028125
30
0
0
VERTEX
8
0
10
9.084
20
20.278990625000002
30
0
0
VERTEX
8
0
10
9.084
20
21.08100625
30
0
0
VERTEX
8
0
10
9.390915625
20
21.82196875
30
0
0
VERTEX
8
0
10
9.958028125
20
22.38908125
30
0
0
VERTEX
8
0
10
10.698990625
20
22.695996875000002
30
0
0
VERTEX
8
0
10
11.501006250000001
20
22.695996875000002
30
0
0
VERTEX
8
0
10
12.24196875
20
22.38908125
30
0
0
VERTEX
8
0
10
12.80908125
20
21.82196875
30
0
0
VERTEX
8
0
10
13.115996875
20
21.08100625
30
0
0
VERTEX
8
0
10
13.115996875
20
20.278990625000002
30
0
0
VERTEX
8
0
10
12.80908125
20
19.538028125
30
0
0
VERTEX
8
0
10
12.24196875
20
18.970915625
30
0
0
VERTEX
8
0
10
11.501006250000001
20
18.664
30
0
0
SEQEND
0
POLYLINE
66
1
8
16_copper
10
0.0
20
0.0
30
0.0
70
1
0
VERTEX
8
0
10
24.709975
20
19.416440625
30
0
0
VERTEX
8
0
10
24.5675125
20
19.48903125
30
0
0
VERTEX
8
0
10
24.43811875
20
19.583040625000002
30
0
0
VERTEX
8
0
10
24.325040625
20
19.69611875
30
0
0
VERTEX
8
0
10
24.23103125
20
19.825512500000002
30
0
0
VERTEX
8
0
10
24.158440625
20
19.967975000000003
30
0
0
VERTEX
8
0
10
24.109015625
20
20.120096875
30
0
0
VERTEX
8
0
10
24.084
20
20.278028125000002
30
0
0
VERTEX
8
0
10
24.084
20
20.86599375
30
0
0
VERTEX
8
0
10
24.338
20
20.86599375
30
0
0
VERTEX
8
0
10
24.338
20
20.320565625
30
0
0
VERTEX
8
0
10
24.3453375
20
20.246056250000002
30
0
42
0.2767375280948381
0
VERTEX
8
0
10
24.84298125
20
19.639678125
30
0
0
VERTEX
8
0
10
24.84599375
20
19.638765625
30
0
0
VERTEX
8
0
10
24.84599375
20
19.372246875000002
30
0
0
SEQEND
0
POLYLINE
66
1
8
16_copper
10
0.0
20
0.0
30
0.0
70
1
0
VERTEX
8
0
10
34.869975000000004
20
19.416440625
30
0
0
VERTEX
8
0
10
34.7275125
20
19.48903125
30
0
0
VERTEX
8
0
10
34.598118750000005
20
19.583040625000002
30
0
0
VERTEX
8
0
10
34.485040625
20
19.69611875
30
0
0
VERTEX
8
0
10
34.391031250000005
20
19.825512500000002
30
0
0
VERTEX
8
0
10
34.318440625
20
19.967975000000003
30
0
0
VERTEX
8
0
10
34.269015625
20
20.120096875
30
0
0
VERTEX
8
0
10
34.244
20
20.278028125000002
30
0
0
VERTEX
8
0
10
34.244
20
20.86599375
30
0
0
VERTEX
8
0
10
34.498000000000005
20
20.86599375
30
0
0
VERTEX
8
0
10
34.498000000000005
20
20.320565625
30
0
0
VERTEX
8
0
10
34.5053375
20
20.246056250000002
30
0
42
0.2767375280948381
0
VERTEX
8
0
10
35.002981250000005
20
19.639678125
30
0
0
VERTEX
8
0
10
35.00599375
20
19.638765625
30
0
0
VERTEX
8
0
10
35.00599375
20
19.372246875000002
30
0
0
SEQEND
0
POLYLINE
66
1
8
16_copper
10
0.0
20
0.0
30
0.0
70
1
0
VERTEX
8
0
10
29.789975000000002
20
19.416440625
30
0
0
VERTEX
8
0
10
29.6475125
20
19.48903125
30
0
0
VERTEX
8
0
10
29.518118750000003
20
19.583040625000002
30
0
0
VERTEX
8
0
10
29.405040625
20
19.69611875
30
0
0
VERTEX
8
0
10
29.311031250000003
20
19.825512500000002
30
0
0
VERTEX
8
0
10
29.238440625000003
20
19.967975000000003
30
0
0
VERTEX
8
0
10
29.189015625
20
20.120096875
30
0
0
VERTEX
8
0
10
29.164
20
20.278028125000002
30
0
0
VERTEX
8
0
10
29.164
20
20.86599375
30
0
0
VERTEX
8
0
10
29.418000000000003
20
20.86599375
30
0
0
VERTEX
8
0
10
29.418000000000003
20
20.320565625
30
0
0
VERTEX
8
0
10
29.4253375
20
20.246056250000002
30
0
42
0.2767375280948381
0
VERTEX
8
0
10
29.922981250000003
20
19.639678125
30
0
0
VERTEX
8
0
10
29.92599375
20
19.638765625
30
0
0
VERTEX
8
0
10
29.92599375
20
19.372246875000002
30
0
0
SEQEND
0
POLYLINE
66
1
8
16_copper
10
0.0
20
0.0
30
0.0
70
1
0
VERTEX
8
0
10
30.434
20
19.638762500000002
30
0
0
VERTEX
8
0
10
30.43701875
20
19.639678125
30
0
42
0.30334709750080463
0
VERTEX
8
0
10
30.942
20
20.320565625
30
0
0
VERTEX
8
0
10
30.942
20
20.86599375
30
0
0
VERTEX
8
0
10
31.195996875000002
20
20.86599375
30
0
0
VERTEX
8
0
10
31.195996875000002
20
20.278028125000002
30
0
0
VERTEX
8
0
10
31.17098125
20
20.120096875
30
0
0
VERTEX
8
0
10
31.12155625
20
19.967975000000003
30
0
0
VERTEX
8
0
10
31.048965625
20
19.825512500000002
30
0
0
VERTEX
8
0
10
30.954956250000002
20
19.69611875
30
0
0
VERTEX
8
0
10
30.841878125
20
19.583040625000002
30
0
0
VERTEX
8
0
10
30.712484375000003
20
19.48903125
30
0
0
VERTEX
8
0
10
30.570021875000002
20
19.416440625
30
0
0
VERTEX
8
0
10
30.434
20
19.372246875000002
30
0
0
SEQEND
0
POLYLINE
66
1
8
16_copper
10
0.0
20
0.0
30
0.0
70
1
0
VERTEX
8
0
10
35.514
20
19.638762500000002
30
0
0
VERTEX
8
0
10
35.51701875
20
19.639678125
30
0
42
0.30334709750080463
0
VERTEX
8
0
10
36.022
20
20.320565625
30
0
0
VERTEX
8
0
10
36.022
20
20.86599375
30
0
0
VERTEX
8
0
10
36.275996875000004
20
20.86599375
30
0
0
VERTEX
8
0
10
36.275996875000004
20
20.278028125000002
30
0
0
VERTEX
8
0
10
36.25098125
20
20.120096875
30
0
0
VERTEX
8
0
10
36.20155625
20
19.967975000000003
30
0
0
VERTEX
8
0
10
36.128965625
20
19.825512500000002
30
0
0
VERTEX
8
0
10
36.03495625
20
19.69611875
30
0
0
VERTEX
8
0
10
35.921878125
20
19.583040625000002
30
0
0
VERTEX
8
0
10
35.792484375
20
19.48903125
30
0
0
VERTEX
8
0
10
35.650021875
20
19.416440625
30
0
0
VERTEX
8
0
10
35.514
20
19.372246875000002
30
0
0
SEQEND
0
POLYLINE
66
1
8
16_copper
10
0.0
20
0.0
30
0.0
70
1
0
VERTEX
8
0
10
25.354000000000003
20
19.638762500000002
30
0
0
VERTEX
8
0
10
25.35701875
20
19.639678125
30
0
42
0.30334709750080463
0
VERTEX
8
0
10
25.862000000000002
20
20.320565625
30
0
0
VERTEX
8
0
10
25.862000000000002
20
20.86599375
30
0
0
VERTEX
8
0
10
26.115996875
20
20.86599375
30
0
0
VERTEX
8
0
10
26.115996875
20
20.278028125000002
30
0
0
VERTEX
8
0
10
26.090981250000002
20
20.120096875
30
0
0
VERTEX
8
0
10
26.041556250000003
20
19.967975000000003
30
0
0
VERTEX
8
0
10
25.968965625000003
20
19.825512500000002
30
0
0
VERTEX
8
0
10
25.87495625
20
19.69611875
30
0
0
VERTEX
8
0
10
25.761878125000003
20
19.583040625000002
30
0
0
VERTEX
8
0
10
25.632484375
20
19.48903125
30
0
0
VERTEX
8
0
10
25.490021875
20
19.416440625
30
0
0
VERTEX
8
0
10
25.354000000000003
20
19.372246875000002
30
0
0
SEQEND
0
POLYLINE
66
1
8
16_copper
10
0.0
20
0.0
30
0.0
70
1
0
VERTEX
8
0
10
16.009646875
20
14.7436
30
0
0
VERTEX
8
0
10
15.694890625000001
20
14.873975000000002
30
0
0
VERTEX
8
0
10
15.453975000000002
20
15.114890625000001
30
0
0
VERTEX
8
0
10
15.3236
20
15.429646875000001
30
0
0
VERTEX
8
0
10
15.3236
20
15.77035
30
0
0
VERTEX
8
0
10
15.453975000000002
20
16.08510625
30
0
0
VERTEX
8
0
10
15.694890625000001
20
16.326021875000002
30
0
0
VERTEX
8
0
10
16.009646875
20
16.456396875
30
0
0
VERTEX
8
0
10
16.350350000000002
20
16.456396875
30
0
0
VERTEX
8
0
10
16.66510625
20
16.326021875000002
30
0
0
VERTEX
8
0
10
16.906021875
20
16.08510625
30
0
0
VERTEX
8
0
10
17.036396875
20
15.77035
30
0
0
VERTEX
8
0
10
17.036396875
20
15.429646875000001
30
0
0
VERTEX
8
0
10
16.906021875
20
15.114890625000001
30
0
0
VERTEX
8
0
10
16.66510625
20
14.873975000000002
30
0
0
VERTEX
8
0
10
16.350350000000002
20
14.7436
30
0
0
SEQEND
0
POLYLINE
66
1
8
16_copper
10
0.0
20
0.0
30
0.0
70
1
0
VERTEX
8
0
10
16.405
20
13.285
30
0
0
VERTEX
8
0
10
16.405
20
13.994190625
30
0
0
VERTEX
8
0
10
16.547734375
20
13.947812500000001
30
0
0
VERTEX
8
0
10
16.682096875
20
13.879353125000002
30
0
0
VERTEX
8
0
10
16.804096875
20
13.790715625
30
0
0
VERTEX
8
0
10
16.910715625
20
13.684096875
30
0
0
VERTEX
8
0
10
16.999353125000003
20
13.562096875
30
0
0
VERTEX
8
0
10
17.067812500000002
20
13.427734375
30
0
0
VERTEX
8
0
10
17.114190625
20
13.285
30
0
0
SEQEND
0
POLYLINE
66
1
8
16_copper
10
0.0
20
0.0
30
0.0
70
1
0
VERTEX
8
0
10
15.245806250000001
20
13.285
30
0
0
VERTEX
8
0
10
15.292184375000001
20
13.427734375
30
0
0
VERTEX
8
0
10
15.360643750000001
20
13.562096875
30
0
0
VERTEX
8
0
10
15.44928125
20
13.684096875
30
0
0
VERTEX
8
0
10
15.555900000000001
20
13.790715625
30
0
0
VERTEX
8
0
10
15.677900000000001
20
13.879353125000002
30
0
0
VERTEX
8
0
10
15.812262500000001
20
13.947812500000001
30
0
0
VERTEX
8
0
10
15.954993750000002
20
13.994190625
30
0
0
VERTEX
8
0
10
15.954993750000002
20
13.285
30
0
0
SEQEND
0
POLYLINE
66
1
8
16_copper
10
0.0
20
0.0
30
0.0
70
1
0
VERTEX
8
0
10
15.812262500000001
20
12.172184375
30
0
0
VERTEX
8
0
10
15.677900000000001
20
12.24064375
30
0
0
VERTEX
8
0
10
15.555900000000001
20
12.329281250000001
30
0
0
VERTEX
8
0
10
15.44928125
20
12.4359
30
0
0
VERTEX
8
0
10
15.360643750000001
20
12.5579
30
0
0
VERTEX
8
0
10
15.292184375000001
20
12.6922625
30
0
0
VERTEX
8
0
10
15.245806250000001
20
12.83499375
30
0
0
VERTEX
8
0
10
15.954993750000002
20
12.83499375
30
0
0
VERTEX
8
0
10
15.954993750000002
20
12.12580625
30
0
0
SEQEND
0
POLYLINE
66
1
8
16_copper
10
0.0
20
0.0
30
0.0
70
1
0
VERTEX
8
0
10
16.405
20
12.83499375
30
0
0
VERTEX
8
0
10
17.114190625
20
12.83499375
30
0
0
VERTEX
8
0
10
17.067812500000002
20
12.6922625
30
0
0
VERTEX
8
0
10
16.999353125000003
20
12.5579
30
0
0
VERTEX
8
0
10
16.910715625
20
12.4359
30
0
0
VERTEX
8
0
10
16.804096875
20
12.329281250000001
30
0
0
VERTEX
8
0
10
16.682096875
20
12.24064375
30
0
0
VERTEX
8
0
10
16.547734375
20
12.172184375
30
0
0
VERTEX
8
0
10
16.405
20
12.12580625
30
0
0
SEQEND
0
POLYLINE
66
1
8
16_copper
10
0.0
20
0.0
30
0.0
70
1
0
VERTEX
8
0
10
10.698990625
20
8.504
30
0
0
VERTEX
8
0
10
9.958028125
20
8.810915625
30
0
0
VERTEX
8
0
10
9.390915625
20
9.378028125
30
0
0
VERTEX
8
0
10
9.084
20
10.118990625
30
0
0
VERTEX
8
0
10
9.084
20
10.921006250000001
30
0
0
VERTEX
8
0
10
9.390915625
20
11.66196875
30
0
0
VERTEX
8
0
10
9.958028125
20
12.22908125
30
0
0
VERTEX
8
0
10
10.698990625
20
12.535996875
30
0
0
VERTEX
8
0
10
11.501006250000001
20
12.535996875
30
0
0
VERTEX
8
0
10
12.24196875
20
12.22908125
30
0
0
VERTEX
8
0
10
12.80908125
20
11.66196875
30
0
0
VERTEX
8
0
10
13.115996875
20
10.921006250000001
30
0
0
VERTEX
8
0
10
13.115996875
20
10.118990625
30
0
0
VERTEX
8
0
10
12.80908125
20
9.378028125
30
0
0
VERTEX
8
0
10
12.24196875
20
8.810915625
30
0
0
VERTEX
8
0
10
11.501006250000001
20
8.504
30
0
0
SEQEND
0
POLYLINE
66
1
8
16_copper
10
0.0
20
0.0
30
0.0
70
1
0
VERTEX
8
0
10
24.083996875
20
9.944
30
0
0
VERTEX
8
0
10
24.084
20
10.53196875
30
0
0
VERTEX
8
0
10
24.109015625
20
10.6899
30
0
0
VERTEX
8
0
10
24.158440625
20
10.842021875
30
0
0
VERTEX
8
0
10
24.23103125
20
10.984484375000001
30
0
0
VERTEX
8
0
10
24.325040625
20
11.113878125000001
30
0
0
VERTEX
8
0
10
24.43811875
20
11.22695625
30
0
0
VERTEX
8
0
10
24.5675125
20
11.320965625000001
30
0
0
VERTEX
8
0
10
24.709975
20
11.393556250000001
30
0
0
VERTEX
8
0
10
24.84599375
20
11.437750000000001
30
0
0
VERTEX
8
0
10
24.84599375
20
11.171234375000001
30
0
0
VERTEX
8
0
10
24.84298125
20
11.170321875
30
0
42
0.30334709750080463
0
VERTEX
8
0
10
24.338
20
10.489434375
30
0
0
VERTEX
8
0
10
24.338
20
9.944
30
0
0
SEQEND
0
POLYLINE
66
1
8
16_copper
10
0.0
20
0.0
30
0.0
70
1
0
VERTEX
8
0
10
25.862000000000002
20
9.944
30
0
0
VERTEX
8
0
10
25.862000000000002
20
10.489434375
30
0
0
VERTEX
8
0
10
25.8546625
20
10.56394375
30
0
42
0.2767375280948381
0
VERTEX
8
0
10
25.35701875
20
11.170321875
30
0
0
VERTEX
8
0
10
25.354000000000003
20
11.1712375
30
0
0
VERTEX
8
0
10
25.354000000000003
20
11.437750000000001
30
0
0
VERTEX
8
0
10
25.490021875
20
11.393556250000001
30
0
0
VERTEX
8
0
10
25.632484375
20
11.320965625000001
30
0
0
VERTEX
8
0
10
25.761878125000003
20
11.22695625
30
0
0
VERTEX
8
0
10
25.87495625
20
11.113878125000001
30
0
0
VERTEX
8
0
10
25.968965625000003
20
10.984484375000001
30
0
0
VERTEX
8
0
10
26.041556250000003
20
10.842021875
30
0
0
VERTEX
8
0
10
26.090981250000002
20
10.6899
30
0
0
VERTEX
8
0
10
26.115996875
20
10.53196875
30
0
0
VERTEX
8
0
10
26.115996875
20
9.944
30
0
0
SEQEND
0
POLYLINE
66
1
8
16_copper
10
0.0
20
0.0
30
0.0
70
1
0
VERTEX
8
0
10
29.163996875000002
20
9.944
30
0
0
VERTEX
8
0
10
29.164
20
10.53196875
30
0
0
VERTEX
8
0
10
29.189015625
20
10.6899
30
0
0
VERTEX
8
0
10
29.238440625000003
20
10.842021875
30
0
0
VERTEX
8
0
10
29.311031250000003
20
10.984484375000001
30
0
0
VERTEX
8
0
10
29.405040625
20
11.113878125000001
30
0
0
VERTEX
8
0
10
29.518118750000003
20
11.22695625
30
0
0
VERTEX
8
0
10
29.6475125
20
11.320965625000001
30
0
0
VERTEX
8
0
10
29.789975000000002
20
11.393556250000001
30
0
0
VERTEX
8
0
10
29.92599375
20
11.437750000000001
30
0
0
VERTEX
8
0
10
29.92599375
20
11.171234375000001
30
0
0
VERTEX
8
0
10
29.922981250000003
20
11.170321875
30
0
42
0.30334709750080463
0
VERTEX
8
0
10
29.418000000000003
20
10.489434375
30
0
0
VERTEX
8
0
10
29.418000000000003
20
9.944
30
0
0
SEQEND
0
POLYLINE
66
1
8
16_copper
10
0.0
20
0.0
30
0.0
70
1
0
VERTEX
8
0
10
30.942
20
9.944
30
0
0
VERTEX
8
0
10
30.942
20
10.489434375
30
0
0
VERTEX
8
0
10
30.9346625
20
10.56394375
30
0
42
0.2767375280948381
0
VERTEX
8
0
10
30.43701875
20
11.170321875
30
0
0
VERTEX
8
0
10
30.434
20
11.1712375
30
0
0
VERTEX
8
0
10
30.434
20
11.437750000000001
30
0
0
VERTEX
8
0
10
30.570021875000002
20
11.393556250000001
30
0
0
VERTEX
8
0
10
30.712484375000003
20
11.320965625000001
30
0
0
VERTEX
8
0
10
30.841878125
20
11.22695625
30
0
0
VERTEX
8
0
10
30.954956250000002
20
11.113878125000001
30
0
0
VERTEX
8
0
10
31.048965625
20
10.984484375000001
30
0
0
VERTEX
8
0
10
31.12155625
20
10.842021875
30
0
0
VERTEX
8
0
10
31.17098125
20
10.6899
30
0
0
VERTEX
8
0
10
31.195996875000002
20
10.53196875
30
0
0
VERTEX
8
0
10
31.195996875000002
20
9.944
30
0
0
SEQEND
0
POLYLINE
66
1
8
16_copper
10
0.0
20
0.0
30
0.0
70
1
0
VERTEX
8
0
10
34.243996875
20
9.944
30
0
0
VERTEX
8
0
10
34.244
20
10.53196875
30
0
0
VERTEX
8
0
10
34.269015625
20
10.6899
30
0
0
VERTEX
8
0
10
34.318440625
20
10.842021875
30
0
0
VERTEX
8
0
10
34.391031250000005
20
10.984484375000001
30
0
0
VERTEX
8
0
10
34.485040625
20
11.113878125000001
30
0
0
VERTEX
8
0
10
34.598118750000005
20
11.22695625
30
0
0
VERTEX
8
0
10
34.7275125
20
11.320965625000001
30
0
0
VERTEX
8
0
10
34.869975000000004
20
11.393556250000001
30
0
0
VERTEX
8
0
10
35.00599375
20
11.437750000000001
30
0
0
VERTEX
8
0
10
35.00599375
20
11.171234375000001
30
0
0
VERTEX
8
0
10
35.002981250000005
20
11.170321875
30
0
42
0.30334709750080463
0
VERTEX
8
0
10
34.498000000000005
20
10.489434375
30
0
0
VERTEX
8
0
10
34.498000000000005
20
9.944
30
0
0
SEQEND
0
POLYLINE
66
1
8
16_copper
10
0.0
20
0.0
30
0.0
70
1
0
VERTEX
8
0
10
36.022
20
9.944
30
0
0
VERTEX
8
0
10
36.022
20
10.489434375
30
0
0
VERTEX
8
0
10
36.0146625
20
10.56394375
30
0
42
0.2767375280948381
0
VERTEX
8
0
10
35.51701875
20
11.170321875
30
0
0
VERTEX
8
0
10
35.514
20
11.1712375
30
0
0
VERTEX
8
0
10
35.514
20
11.437750000000001
30
0
0
VERTEX
8
0
10
35.650021875
20
11.393556250000001
30
0
0
VERTEX
8
0
10
35.792484375
20
11.320965625000001
30
0
0
VERTEX
8
0
10
35.921878125
20
11.22695625
30
0
0
VERTEX
8
0
10
36.03495625
20
11.113878125000001
30
0
0
VERTEX
8
0
10
36.128965625
20
10.984484375000001
30
0
0
VERTEX
8
0
10
36.20155625
20
10.842021875
30
0
0
VERTEX
8
0
10
36.25098125
20
10.6899
30
0
0
VERTEX
8
0
10
36.275996875000004
20
10.53196875
30
0
0
VERTEX
8
0
10
36.275996875000004
20
9.944
30
0
0
SEQEND
0
POLYLINE
66
1
8
16_copper
10
0.0
20
0.0
30
0.0
70
1
0
VERTEX
8
0
10
22.378109375
20
8.0136
30
0
0
VERTEX
8
0
10
22.042034375
20
8.152806250000001
30
0
0
VERTEX
8
0
10
21.784806250000003
20
8.410034375
30
0
0
VERTEX
8
0
10
21.6456
20
8.746109375
30
0
0
VERTEX
8
0
10
21.6456
20
10.6338875
30
0
0
VERTEX
8
0
10
21.784806250000003
20
10.969962500000001
30
0
0
VERTEX
8
0
10
22.042034375
20
11.227190625
30
0
0
VERTEX
8
0
10
22.378109375
20
11.366396875000001
30
0
0
VERTEX
8
0
10
22.7418875
20
11.366396875000001
30
0
0
VERTEX
8
0
10
23.0779625
20
11.227190625
30
0
0
VERTEX
8
0
10
23.335190625000003
20
10.969962500000001
30
0
0
VERTEX
8
0
10
23.474396875
20
10.6338875
30
0
0
VERTEX
8
0
10
23.474396875
20
8.746109375
30
0
0
VERTEX
8
0
10
23.335190625000003
20
8.410034375
30
0
0
VERTEX
8
0
10
23.0779625
20
8.152806250000001
30
0
0
VERTEX
8
0
10
22.7418875
20
8.0136
30
0
0
SEQEND
0
POLYLINE
66
1
8
16_copper
10
0.0
20
0.0
30
0.0
70
1
0
VERTEX
8
0
10
32.538109375000005
20
8.0136
30
0
0
VERTEX
8
0
10
32.202034375000004
20
8.152806250000001
30
0
0
VERTEX
8
0
10
31.944806250000003
20
8.410034375
30
0
0
VERTEX
8
0
10
31.805600000000002
20
8.746109375
30
0
0
VERTEX
8
0
10
31.805600000000002
20
10.6338875
30
0
0
VERTEX
8
0
10
31.944806250000003
20
10.969962500000001
30
0
0
VERTEX
8
0
10
32.202034375000004
20
11.227190625
30
0
0
VERTEX
8
0
10
32.538109375000005
20
11.366396875000001
30
0
0
VERTEX
8
0
10
32.9018875
20
11.366396875000001
30
0
0
VERTEX
8
0
10
33.2379625
20
11.227190625
30
0
0
VERTEX
8
0
10
33.495190625
20
10.969962500000001
30
0
0
VERTEX
8
0
10
33.634396875
20
10.6338875
30
0
0
VERTEX
8
0
10
33.634396875
20
8.746109375
30
0
0
VERTEX
8
0
10
33.495190625
20
8.410034375
30
0
0
VERTEX
8
0
10
33.2379625
20
8.152806250000001
30
0
0
VERTEX
8
0
10
32.9018875
20
8.0136
30
0
0
SEQEND
0
POLYLINE
66
1
8
16_copper
10
0.0
20
0.0
30
0.0
70
1
0
VERTEX
8
0
10
27.458109375000003
20
8.0136
30
0
0
VERTEX
8
0
10
27.122034375000002
20
8.152806250000001
30
0
0
VERTEX
8
0
10
26.86480625
20
8.410034375
30
0
0
VERTEX
8
0
10
26.7256
20
8.746109375
30
0
0
VERTEX
8
0
10
26.7256
20
10.6338875
30
0
0
VERTEX
8
0
10
26.86480625
20
10.969962500000001
30
0
0
VERTEX
8
0
10
27.122034375000002
20
11.227190625
30
0
0
VERTEX
8
0
10
27.458109375000003
20
11.366396875000001
30
0
0
VERTEX
8
0
10
27.821887500000003
20
11.366396875000001
30
0
0
VERTEX
8
0
10
28.1579625
20
11.227190625
30
0
0
VERTEX
8
0
10
28.415190625
20
10.969962500000001
30
0
0
VERTEX
8
0
10
28.554396875000002
20
10.6338875
30
0
0
VERTEX
8
0
10
28.554396875000002
20
8.746109375
30
0
0
VERTEX
8
0
10
28.415190625
20
8.410034375
30
0
0
VERTEX
8
0
10
28.1579625
20
8.152806250000001
30
0
0
VERTEX
8
0
10
27.821887500000003
20
8.0136
30
0
0
SEQEND
0
POLYLINE
66
1
8
16_copper
10
0.0
20
0.0
30
0.0
70
1
0
VERTEX
8
0
10
34.869975000000004
20
7.986440625
30
0
0
VERTEX
8
0
10
34.7275125
20
8.05903125
30
0
0
VERTEX
8
0
10
34.598118750000005
20
8.153040625000001
30
0
0
VERTEX
8
0
10
34.485040625
20
8.26611875
30
0
0
VERTEX
8
0
10
34.391031250000005
20
8.3955125
30
0
0
VERTEX
8
0
10
34.318440625
20
8.537975000000001
30
0
0
VERTEX
8
0
10
34.269015625
20
8.690096875
30
0
0
VERTEX
8
0
10
34.244
20
8.848028125
30
0
0
VERTEX
8
0
10
34.244
20
9.43599375
30
0
0
VERTEX
8
0
10
34.498000000000005
20
9.43599375
30
0
0
VERTEX
8
0
10
34.498000000000005
20
8.890565625
30
0
0
VERTEX
8
0
10
34.5053375
20
8.81605625
30
0
42
0.2767375280948381
0
VERTEX
8
0
10
35.002981250000005
20
8.209678125
30
0
0
VERTEX
8
0
10
35.00599375
20
8.208765625
30
0
0
VERTEX
8
0
10
35.00599375
20
7.942246875
30
0
0
SEQEND
0
POLYLINE
66
1
8
16_copper
10
0.0
20
0.0
30
0.0
70
1
0
VERTEX
8
0
10
29.789975000000002
20
7.986440625
30
0
0
VERTEX
8
0
10
29.6475125
20
8.05903125
30
0
0
VERTEX
8
0
10
29.518118750000003
20
8.153040625000001
30
0
0
VERTEX
8
0
10
29.405040625
20
8.26611875
30
0
0
VERTEX
8
0
10
29.311031250000003
20
8.3955125
30
0
0
VERTEX
8
0
10
29.238440625000003
20
8.537975000000001
30
0
0
VERTEX
8
0
10
29.189015625
20
8.690096875
30
0
0
VERTEX
8
0
10
29.164
20
8.848028125
30
0
0
VERTEX
8
0
10
29.164
20
9.43599375
30
0
0
VERTEX
8
0
10
29.418000000000003
20
9.43599375
30
0
0
VERTEX
8
0
10
29.418000000000003
20
8.890565625
30
0
0
VERTEX
8
0
10
29.4253375
20
8.81605625
30
0
42
0.2767375280948381
0
VERTEX
8
0
10
29.922981250000003
20
8.209678125
30
0
0
VERTEX
8
0
10
29.92599375
20
8.208765625
30
0
0
VERTEX
8
0
10
29.92599375
20
7.942246875
30
0
0
SEQEND
0
POLYLINE
66
1
8
16_copper
10
0.0
20
0.0
30
0.0
70
1
0
VERTEX
8
0
10
24.709975
20
7.986440625
30
0
0
VERTEX
8
0
10
24.5675125
20
8.05903125
30
0
0
VERTEX
8
0
10
24.43811875
20
8.153040625000001
30
0
0
VERTEX
8
0
10
24.325040625
20
8.26611875
30
0
0
VERTEX
8
0
10
24.23103125
20
8.3955125
30
0
0
VERTEX
8
0
10
24.158440625
20
8.537975000000001
30
0
0
VERTEX
8
0
10
24.109015625
20
8.690096875
30
0
0
VERTEX
8
0
10
24.084
20
8.848028125
30
0
0
VERTEX
8
0
10
24.084
20
9.43599375
30
0
0
VERTEX
8
0
10
24.338
20
9.43599375
30
0
0
VERTEX
8
0
10
24.338
20
8.890565625
30
0
0
VERTEX
8
0
10
24.3453375
20
8.81605625
30
0
42
0.2767375280948381
0
VERTEX
8
0
10
24.84298125
20
8.209678125
30
0
0
VERTEX
8
0
10
24.84599375
20
8.208765625
30
0
0
VERTEX
8
0
10
24.84599375
20
7.942246875
30
0
0
SEQEND
0
POLYLINE
66
1
8
16_copper
10
0.0
20
0.0
30
0.0
70
1
0
VERTEX
8
0
10
25.354000000000003
20
8.2087625
30
0
0
VERTEX
8
0
10
25.35701875
20
8.209678125
30
0
42
0.30334709750080463
0
VERTEX
8
0
10
25.862000000000002
20
8.890565625
30
0
0
VERTEX
8
0
10
25.862000000000002
20
9.43599375
30
0
0
VERTEX
8
0
10
26.115996875
20
9.43599375
30
0
0
VERTEX
8
0
10
26.115996875
20
8.848028125
30
0
0
VERTEX
8
0
10
26.090981250000002
20
8.690096875
30
0
0
VERTEX
8
0
10
26.041556250000003
20
8.537975000000001
30
0
0
VERTEX
8
0
10
25.968965625000003
20
8.3955125
30
0
0
VERTEX
8
0
10
25.87495625
20
8.26611875
30
0
0
VERTEX
8
0
10
25.761878125000003
20
8.153040625000001
30
0
0
VERTEX
8
0
10
25.632484375
20
8.05903125
30
0
0
VERTEX
8
0
10
25.490021875
20
7.986440625
30
0
0
VERTEX
8
0
10
25.354000000000003
20
7.942246875
30
0
0
SEQEND
0
POLYLINE
66
1
8
16_copper
10
0.0
20
0.0
30
0.0
70
1
0
VERTEX
8
0
10
30.434
20
8.2087625
30
0
0
VERTEX
8
0
10
30.43701875
20
8.209678125
30
0
42
0.30334709750080463
0
VERTEX
8
0
10
30.942
20
8.890565625
30
0
0
VERTEX
8
0
10
30.942
20
9.43599375
30
0
0
VERTEX
8
0
10
31.195996875000002
20
9.43599375
30
0
0
VERTEX
8
0
10
31.195996875000002
20
8.848028125
30
0
0
VERTEX
8
0
10
31.17098125
20
8.690096875
30
0
0
VERTEX
8
0
10
31.12155625
20
8.537975000000001
30
0
0
VERTEX
8
0
10
31.048965625
20
8.3955125
30
0
0
VERTEX
8
0
10
30.954956250000002
20
8.26611875
30
0
0
VERTEX
8
0
10
30.841878125
20
8.153040625000001
30
0
0
VERTEX
8
0
10
30.712484375000003
20
8.05903125
30
0
0
VERTEX
8
0
10
30.570021875000002
20
7.986440625
30
0
0
VERTEX
8
0
10
30.434
20
7.942246875
30
0
0
SEQEND
0
POLYLINE
66
1
8
16_copper
10
0.0
20
0.0
30
0.0
70
1
0
VERTEX
8
0
10
35.514
20
8.2087625
30
0
0
VERTEX
8
0
10
35.51701875
20
8.209678125
30
0
42
0.30334709750080463
0
VERTEX
8
0
10
36.022
20
8.890565625
30
0
0
VERTEX
8
0
10
36.022
20
9.43599375
30
0
0
VERTEX
8
0
10
36.275996875000004
20
9.43599375
30
0
0
VERTEX
8
0
10
36.275996875000004
20
8.848028125
30
0
0
VERTEX
8
0
10
36.25098125
20
8.690096875
30
0
0
VERTEX
8
0
10
36.20155625
20
8.537975000000001
30
0
0
VERTEX
8
0
10
36.128965625
20
8.3955125
30
0
0
VERTEX
8
0
10
36.03495625
20
8.26611875
30
0
0
VERTEX
8
0
10
35.921878125
20
8.153040625000001
30
0
0
VERTEX
8
0
10
35.792484375
20
8.05903125
30
0
0
VERTEX
8
0
10
35.650021875
20
7.986440625
30
0
0
VERTEX
8
0
10
35.514
20
7.942246875
30
0
0
SEQEND
0
POLYLINE
66
1
8
1_copper
10
0.0
20
0.0
30
0.0
70
1
0
VERTEX
8
0
10
21.4064
20
16.206556250000002
30
0
42
0.5237268071256042
0
VERTEX
8
0
10
21.093165625
20
16.0904625
30
0
0
VERTEX
8
0
10
21.089496875000002
20
16.0682
30
0
0
VERTEX
8
0
10
16.445
20
16.0682
30
0
0
VERTEX
8
0
10
16.434896875
20
16.0673125
30
0
0
VERTEX
8
0
10
16.424734375
20
16.0671875
30
0
42
0.13234210275356542
0
VERTEX
8
0
10
16.325909375000002
20
16.02964375
30
0
0
VERTEX
8
0
10
16.31954375
20
16.02421875
30
0
42
0.01802390080028543
0
VERTEX
8
0
10
16.308425
20
16.01474375
30
0
0
VERTEX
8
0
10
16.301315625
20
16.008684375
30
0
0
VERTEX
8
0
10
16.036315625
20
15.743684375
30
0
0
VERTEX
8
0
10
16.01344375
20
15.7164
30
0
42
0.9159160613300048
0
VERTEX
8
0
10
16.323684375
20
15.456315625
30
0
0
VERTEX
8
0
10
16.52916875
20
15.661800000000001
30
0
0
VERTEX
8
0
10
21.38083125
20
15.661800000000001
30
0
0
VERTEX
8
0
10
22.3568
20
14.685831250000001
30
0
0
VERTEX
8
0
10
22.3568
20
11.18665
30
0
0
VERTEX
8
0
10
22.302981250000002
20
11.170321875
30
0
42
0.30334709750080463
0
VERTEX
8
0
10
21.798000000000002
20
10.489434375
30
0
0
VERTEX
8
0
10
21.798000000000002
20
8.890565625
30
0
0
VERTEX
8
0
10
21.8053375
20
8.81605625
30
0
42
0.9063472543261978
0
VERTEX
8
0
10
23.322000000000003
20
8.890565625
30
0
0
VERTEX
8
0
10
23.322000000000003
20
10.489434375
30
0
0
VERTEX
8
0
10
23.3146625
20
10.56394375
30
0
42
0.19891253782644208
0
VERTEX
8
0
10
23.014468750000002
20
11.064781250000001
30
0
0
VERTEX
8
0
10
22.9771125
20
11.08974375
30
0
0
VERTEX
8
0
10
23.91416875
20
12.0268
30
0
0
VERTEX
8
0
10
26.28583125
20
12.0268
30
0
0
VERTEX
8
0
10
27.222887500000002
20
11.08974375
30
0
0
VERTEX
8
0
10
27.18553125
20
11.064781250000001
30
0
42
0.22455782798648444
0
VERTEX
8
0
10
26.878
20
10.489434375
30
0
0
VERTEX
8
0
10
26.878
20
8.890565625
30
0
0
VERTEX
8
0
10
26.885337500000002
20
8.81605625
30
0
42
0.9063472543261978
0
VERTEX
8
0
10
28.402
20
8.890565625
30
0
0
VERTEX
8
0
10
28.402
20
10.489434375
30
0
0
VERTEX
8
0
10
28.394662500000003
20
10.56394375
30
0
42
0.19891253782644208
0
VERTEX
8
0
10
28.09446875
20
11.064781250000001
30
0
0
VERTEX
8
0
10
28.057112500000002
20
11.08974375
30
0
0
VERTEX
8
0
10
28.99416875
20
12.0268
30
0
0
VERTEX
8
0
10
31.365831250000003
20
12.0268
30
0
0
VERTEX
8
0
10
32.302887500000004
20
11.08974375
30
0
0
VERTEX
8
0
10
32.26553125
20
11.064781250000001
30
0
42
0.22455782798648444
0
VERTEX
8
0
10
31.958000000000002
20
10.489434375
30
0
0
VERTEX
8
0
10
31.958000000000002
20
8.890565625
30
0
0
VERTEX
8
0
10
31.9653375
20
8.81605625
30
0
42
0.9063472543261978
0
VERTEX
8
0
10
33.482
20
8.890565625
30
0
0
VERTEX
8
0
10
33.482
20
10.489434375
30
0
0
VERTEX
8
0
10
33.4746625
20
10.56394375
30
0
42
0.25048687284215787
0
VERTEX
8
0
10
33.046190625
20
11.141671875
30
0
0
VERTEX
8
0
10
32.9932
20
11.163618750000001
30
0
0
VERTEX
8
0
10
32.9932
20
19.64638125
30
0
0
VERTEX
8
0
10
33.046190625
20
19.668328125000002
30
0
42
0.2767373317423673
0
VERTEX
8
0
10
33.482
20
20.320565625
30
0
0
VERTEX
8
0
10
33.482
20
21.919434375
30
0
0
VERTEX
8
0
10
33.4746625
20
21.99394375
30
0
42
0.9063472543261978
0
VERTEX
8
0
10
31.958000000000002
20
21.919434375
30
0
0
VERTEX
8
0
10
31.958000000000002
20
20.320565625
30
0
0
VERTEX
8
0
10
31.9653375
20
20.246056250000002
30
0
42
0.19891253782644208
0
VERTEX
8
0
10
32.26553125
20
19.74521875
30
0
0
VERTEX
8
0
10
32.302887500000004
20
19.720256250000002
30
0
0
VERTEX
8
0
10
31.365831250000003
20
18.7832
30
0
0
VERTEX
8
0
10
28.99416875
20
18.7832
30
0
0
VERTEX
8
0
10
28.057112500000002
20
19.720256250000002
30
0
0
VERTEX
8
0
10
28.09446875
20
19.74521875
30
0
42
0.22455782798648444
0
VERTEX
8
0
10
28.402
20
20.320565625
30
0
0
VERTEX
8
0
10
28.402
20
21.919434375
30
0
0
VERTEX
8
0
10
28.394662500000003
20
21.99394375
30
0
42
0.9063472543261978
0
VERTEX
8
0
10
26.878
20
21.919434375
30
0
0
VERTEX
8
0
10
26.878
20
20.320565625
30
0
0
VERTEX
8
0
10
26.885337500000002
20
20.246056250000002
30
0
42
0.19891253782644208
0
VERTEX
8
0
10
27.18553125
20
19.74521875
30
0
0
VERTEX
8
0
10
27.222887500000002
20
19.720256250000002
30
0
0
VERTEX
8
0
10
26.28583125
20
18.7832
30
0
0
VERTEX
8
0
10
23.91416875
20
18.7832
30
0
0
VERTEX
8
0
10
22.9771125
20
19.720256250000002
30
0
0
VERTEX
8
0
10
23.014468750000002
20
19.74521875
30
0
42
0.22455782798648444
0
VERTEX
8
0
10
23.322000000000003
20
20.320565625
30
0
0
VERTEX
8
0
10
23.322000000000003
20
21.919434375
30
0
0
VERTEX
8
0
10
23.3146625
20
21.99394375
30
0
42
0.9063472543261978
0
VERTEX
8
0
10
21.798000000000002
20
21.919434375
30
0
0
VERTEX
8
0
10
21.798000000000002
20
20.320565625
30
0
0
VERTEX
8
0
10
21.8053375
20
20.246056250000002
30
0
42
0.3578057741447831
0
VERTEX
8
0
10
22.522565625000002
20
19.596
30
0
0
VERTEX
8
0
10
22.52663125
20
19.596
30
0
0
VERTEX
8
0
10
23.686315625000002
20
18.436315625000002
30
0
0
VERTEX
8
0
10
23.69410625
20
18.429784375
30
0
0
VERTEX
8
0
10
23.701362500000002
20
18.422703125
30
0
42
0.13234447677005623
0
VERTEX
8
0
10
23.797790625
20
18.37936875
30
0
0
VERTEX
8
0
10
23.806115625
20
18.37870625
30
0
42
0.01805948283611007
0
VERTEX
8
0
10
23.82070625
20
18.377540625
30
0
0
VERTEX
8
0
10
23.830000000000002
20
18.3768
30
0
0
VERTEX
8
0
10
26.37
20
18.3768
30
0
0
VERTEX
8
0
10
26.380103125
20
18.3776875
30
0
0
VERTEX
8
0
10
26.390265625
20
18.3778125
30
0
42
0.13234210275356542
0
VERTEX
8
0
10
26.489090625000003
20
18.415356250000002
30
0
0
VERTEX
8
0
10
26.49545625
20
18.42078125
30
0
42
0.01802390080028543
0
VERTEX
8
0
10
26.506575
20
18.43025625
30
0
0
VERTEX
8
0
10
26.513684375
20
18.436315625000002
30
0
0
VERTEX
8
0
10
27.64
20
19.562631250000003
30
0
0
VERTEX
8
0
10
28.766315625
20
18.436315625000002
30
0
0
VERTEX
8
0
10
28.774106250000003
20
18.429784375
30
0
0
VERTEX
8
0
10
28.7813625
20
18.422703125
30
0
42
0.13234447677005623
0
VERTEX
8
0
10
28.877790625000003
20
18.37936875
30
0
0
VERTEX
8
0
10
28.886115625000002
20
18.37870625
30
0
42
0.01805948283611007
0
VERTEX
8
0
10
28.900706250000002
20
18.377540625
30
0
0
VERTEX
8
0
10
28.91
20
18.3768
30
0
0
VERTEX
8
0
10
31.450000000000003
20
18.3768
30
0
0
VERTEX
8
0
10
31.460103125
20
18.3776875
30
0
0
VERTEX
8
0
10
31.470265625000003
20
18.3778125
30
0
42
0.13234210275356542
0
VERTEX
8
0
10
31.569090625
20
18.415356250000002
30
0
0
VERTEX
8
0
10
31.575456250000002
20
18.42078125
30
0
42
0.01802390080028543
0
VERTEX
8
0
10
31.586575
20
18.43025625
30
0
0
VERTEX
8
0
10
31.593684375000002
20
18.436315625000002
30
0
0
VERTEX
8
0
10
32.586800000000004
20
19.42943125
30
0
0
VERTEX
8
0
10
32.586800000000004
20
11.38056875
30
0
0
VERTEX
8
0
10
31.593684375000002
20
12.373684375
30
0
0
VERTEX
8
0
10
31.58589375
20
12.380215625
30
0
0
VERTEX
8
0
10
31.578637500000003
20
12.387296875
30
0
42
0.13234447677005623
0
VERTEX
8
0
10
31.482209375
20
12.430631250000001
30
0
0
VERTEX
8
0
10
31.473884375
20
12.43129375
30
0
42
0.01805948283611007
0
VERTEX
8
0
10
31.45929375
20
12.432459375
30
0
0
VERTEX
8
0
10
31.450000000000003
20
12.433200000000001
30
0
0
VERTEX
8
0
10
28.91
20
12.433200000000001
30
0
0
VERTEX
8
0
10
28.899896875000003
20
12.4323125
30
0
0
VERTEX
8
0
10
28.889734375
20
12.432187500000001
30
0
42
0.13234210275356542
0
VERTEX
8
0
10
28.790909375000002
20
12.39464375
30
0
0
VERTEX
8
0
10
28.78454375
20
12.389218750000001
30
0
42
0.01802390080028543
0
VERTEX
8
0
10
28.773425000000003
20
12.379743750000001
30
0
0
VERTEX
8
0
10
28.766315625
20
12.373684375
30
0
0
VERTEX
8
0
10
27.64
20
11.24736875
30
0
0
VERTEX
8
0
10
26.513684375
20
12.373684375
30
0
0
VERTEX
8
0
10
26.505893750000002
20
12.380215625
30
0
0
VERTEX
8
0
10
26.4986375
20
12.387296875
30
0
42
0.13234447677005623
0
VERTEX
8
0
10
26.402209375
20
12.430631250000001
30
0
0
VERTEX
8
0
10
26.393884375000003
20
12.43129375
30
0
42
0.01805948283611007
0
VERTEX
8
0
10
26.379293750000002
20
12.432459375
30
0
0
VERTEX
8
0
10
26.37
20
12.433200000000001
30
0
0
VERTEX
8
0
10
23.830000000000002
20
12.433200000000001
30
0
0
VERTEX
8
0
10
23.819896875
20
12.4323125
30
0
0
VERTEX
8
0
10
23.809734375
20
12.432187500000001
30
0
42
0.13234210275356542
0
VERTEX
8
0
10
23.710909375
20
12.39464375
30
0
0
VERTEX
8
0
10
23.704543750000003
20
12.389218750000001
30
0
42
0.01802390080028543
0
VERTEX
8
0
10
23.693425
20
12.379743750000001
30
0
0
VERTEX
8
0
10
23.686315625000002
20
12.373684375
30
0
0
VERTEX
8
0
10
22.7632
20
11.45056875
30
0
0
VERTEX
8
0
10
22.7632
20
14.770000000000001
30
0
0
VERTEX
8
0
10
22.7623125
20
14.780103125
30
0
0
VERTEX
8
0
10
22.7621875
20
14.790265625
30
0
42
0.13234210275356542
0
VERTEX
8
0
10
22.724643750000002
20
14.889090625000001
30
0
0
VERTEX
8
0
10
22.71921875
20
14.89545625
30
0
42
0.01802390080028543
0
VERTEX
8
0
10
22.70974375
20
14.906575
30
0
0
VERTEX
8
0
10
22.703684375
20
14.913684375
30
0
0
VERTEX
8
0
10
21.433684375000002
20
16.183684375000002
30
0
0
SEQEND
0
POLYLINE
66
1
8
16_copper
10
0.0
20
0.0
30
0.0
70
1
0
VERTEX
8
0
10
32.83194375
20
19.603337500000002
30
0
42
0.3578057741447831
0
VERTEX
8
0
10
33.482
20
20.320565625
30
0
0
VERTEX
8
0
10
33.482
20
21.919434375
30
0
0
VERTEX
8
0
10
33.4746625
20
21.99394375
30
0
42
0.9063472543261978
0
VERTEX
8
0
10
31.958000000000002
20
21.919434375
30
0
0
VERTEX
8
0
10
31.958000000000002
20
20.320565625
30
0
0
VERTEX
8
0
10
31.9653375
20
20.246056250000002
30
0
42
0.38574240611503685
0
VERTEX
8
0
10
32.757434375
20
19.596
30
0
0
SEQEND
0
POLYLINE
66
1
8
16_copper
10
0.0
20
0.0
30
0.0
70
1
0
VERTEX
8
0
10
27.751943750000002
20
19.603337500000002
30
0
42
0.3578057741447831
0
VERTEX
8
0
10
28.402
20
20.320565625
30
0
0
VERTEX
8
0
10
28.402
20
21.919434375
30
0
0
VERTEX
8
0
10
28.394662500000003
20
21.99394375
30
0
42
0.9063472543261978
0
VERTEX
8
0
10
26.878
20
21.919434375
30
0
0
VERTEX
8
0
10
26.878
20
20.320565625
30
0
0
VERTEX
8
0
10
26.885337500000002
20
20.246056250000002
30
0
42
0.38574240611503685
0
VERTEX
8
0
10
27.677434375
20
19.596
30
0
0
SEQEND
0
POLYLINE
66
1
8
16_copper
10
0.0
20
0.0
30
0.0
70
1
0
VERTEX
8
0
10
22.67194375
20
19.603337500000002
30
0
42
0.3578057741447831
0
VERTEX
8
0
10
23.322000000000003
20
20.320565625
30
0
0
VERTEX
8
0
10
23.322000000000003
20
21.919434375
30
0
0
VERTEX
8
0
10
23.3146625
20
21.99394375
30
0
42
0.9063472543261978
0
VERTEX
8
0
10
21.798000000000002
20
21.919434375
30
0
0
VERTEX
8
0
10
21.798000000000002
20
20.320565625
30
0
0
VERTEX
8
0
10
21.8053375
20
20.246056250000002
30
0
42
0.38574240611503685
0
VERTEX
8
0
10
22.597434375000002
20
19.596
30
0
0
SEQEND
0
POLYLINE
66
1
8
16_copper
10
0.0
20
0.0
30
0.0
70
1
0
VERTEX
8
0
10
22.67194375
20
8.1733375
30
0
42
0.3578057741447831
0
VERTEX
8
0
10
23.322000000000003
20
8.890565625
30
0
0
VERTEX
8
0
10
23.322000000000003
20
10.489434375
30
0
0
VERTEX
8
0
10
23.3146625
20
10.56394375
30
0
42
0.9063472543261978
0
VERTEX
8
0
10
21.798000000000002
20
10.489434375
30
0
0
VERTEX
8
0
10
21.798000000000002
20
8.890565625
30
0
0
VERTEX
8
0
10
21.8053375
20
8.81605625
30
0
42
0.38574240611503685
0
VERTEX
8
0
10
22.597434375000002
20
8.166
30
0
0
SEQEND
0
POLYLINE
66
1
8
16_copper
10
0.0
20
0.0
30
0.0
70
1
0
VERTEX
8
0
10
27.751943750000002
20
8.1733375
30
0
42
0.3578057741447831
0
VERTEX
8
0
10
28.402
20
8.890565625
30
0
0
VERTEX
8
0
10
28.402
20
10.489434375
30
0
0
VERTEX
8
0
10
28.394662500000003
20
10.56394375
30
0
42
0.9063472543261978
0
VERTEX
8
0
10
26.878
20
10.489434375
30
0
0
VERTEX
8
0
10
26.878
20
8.890565625
30
0
0
VERTEX
8
0
10
26.885337500000002
20
8.81605625
30
0
42
0.38574240611503685
0
VERTEX
8
0
10
27.677434375
20
8.166
30
0
0
SEQEND
0
POLYLINE
66
1
8
16_copper
10
0.0
20
0.0
30
0.0
70
1
0
VERTEX
8
0
10
32.83194375
20
8.1733375
30
0
42
0.3578057741447831
0
VERTEX
8
0
10
33.482
20
8.890565625
30
0
0
VERTEX
8
0
10
33.482
20
10.489434375
30
0
0
VERTEX
8
0
10
33.4746625
20
10.56394375
30
0
42
0.9063472543261978
0
VERTEX
8
0
10
31.958000000000002
20
10.489434375
30
0
0
VERTEX
8
0
10
31.958000000000002
20
8.890565625
30
0
0
VERTEX
8
0
10
31.9653375
20
8.81605625
30
0
42
0.38574240611503685
0
VERTEX
8
0
10
32.757434375
20
8.166
30
0
0
SEQEND
0
CIRCLE
8
drills_NPTH
10
11.1
20
10.520000000000001
30
0
40
1
0
CIRCLE
8
drills_NPTH
10
11.1
20
20.68
30
0
40
1
0
CIRCLE
8
drills_NPTH
10
1.8
20
24.8
30
0
40
1
0
CIRCLE
8
drills_NPTH
10
41.300000000000004
20
25
30
0
40
1
0
CIRCLE
8
drills_NPTH
10
41.300000000000004
20
6.800000000000001
30
0
40
1
0
CIRCLE
8
drills_NPTH
10
1.7000000000000002
20
6.800000000000001
30
0
40
1
0
CIRCLE
8
drills_PTH
10
11.1
20
10.520000000000001
30
0
40
1
0
CIRCLE
8
drills_PTH
10
11.1
20
20.68
30
0
40
1
0
CIRCLE
8
drills_PTH
10
22.560000000000002
20
9.690000000000001
30
0
40
0.508
0
CIRCLE
8
drills_PTH
10
25.1
20
9.690000000000001
30
0
40
0.508
0
CIRCLE
8
drills_PTH
10
27.64
20
9.690000000000001
30
0
40
0.508
0
CIRCLE
8
drills_PTH
10
30.18
20
9.690000000000001
30
0
40
0.508
0
CIRCLE
8
drills_PTH
10
32.72
20
9.690000000000001
30
0
40
0.508
0
CIRCLE
8
drills_PTH
10
35.260000000000005
20
9.690000000000001
30
0
40
0.508
0
CIRCLE
8
drills_PTH
10
35.260000000000005
20
21.12
30
0
40
0.508
0
CIRCLE
8
drills_PTH
10
32.72
20
21.12
30
0
40
0.508
0
CIRCLE
8
drills_PTH
10
30.18
20
21.12
30
0
40
0.508
0
CIRCLE
8
drills_PTH
10
27.64
20
21.12
30
0
40
0.508
0
CIRCLE
8
drills_PTH
10
25.1
20
21.12
30
0
40
0.508
0
CIRCLE
8
drills_PTH
10
22.560000000000002
20
21.12
30
0
40
0.508
0
CIRCLE
8
drills_PTH
10
16.18
20
15.600000000000001
30
0
40
0.45
0
CIRCLE
8
drills_PTH
10
16.18
20
13.06
30
0
40
0.45
0
ENDSEC
0
EOF